<svg xmlns="http://www.w3.org/2000/svg" xmlns:xlink="http://www.w3.org/1999/xlink" width="600" height="400" viewBox="0 0 2400 1600">
<defs>
  <clipPath id="clip930">
    <rect x="0" y="0" width="2400" height="1600"></rect>
  </clipPath>
</defs>
<path clip-path="url(#clip930)" d="M0 1600 L2400 1600 L2400 0 L0 0  Z" fill="#ffffff" fill-rule="evenodd" fill-opacity="1"></path>
<defs>
  <clipPath id="clip931">
    <rect x="480" y="0" width="1681" height="1600"></rect>
  </clipPath>
</defs>
<path clip-path="url(#clip930)" d="M219.866 1423.18 L2352.76 1423.18 L2352.76 123.472 L219.866 123.472  Z" fill="#ffffff" fill-rule="evenodd" fill-opacity="1"></path>
<defs>
  <clipPath id="clip932">
    <rect x="219" y="123" width="2134" height="1301"></rect>
  </clipPath>
</defs>
<polyline clip-path="url(#clip932)" style="stroke:#000000; stroke-linecap:round; stroke-linejoin:round; stroke-width:2; stroke-opacity:0.1; fill:none" points="280.231,1423.18 280.231,123.472 "></polyline>
<polyline clip-path="url(#clip932)" style="stroke:#000000; stroke-linecap:round; stroke-linejoin:round; stroke-width:2; stroke-opacity:0.1; fill:none" points="783.271,1423.18 783.271,123.472 "></polyline>
<polyline clip-path="url(#clip932)" style="stroke:#000000; stroke-linecap:round; stroke-linejoin:round; stroke-width:2; stroke-opacity:0.1; fill:none" points="1286.31,1423.18 1286.31,123.472 "></polyline>
<polyline clip-path="url(#clip932)" style="stroke:#000000; stroke-linecap:round; stroke-linejoin:round; stroke-width:2; stroke-opacity:0.1; fill:none" points="1789.35,1423.18 1789.35,123.472 "></polyline>
<polyline clip-path="url(#clip932)" style="stroke:#000000; stroke-linecap:round; stroke-linejoin:round; stroke-width:2; stroke-opacity:0.1; fill:none" points="2292.39,1423.18 2292.39,123.472 "></polyline>
<polyline clip-path="url(#clip932)" style="stroke:#000000; stroke-linecap:round; stroke-linejoin:round; stroke-width:2; stroke-opacity:0.1; fill:none" points="219.866,1423.18 2352.76,1423.18 "></polyline>
<polyline clip-path="url(#clip932)" style="stroke:#000000; stroke-linecap:round; stroke-linejoin:round; stroke-width:2; stroke-opacity:0.1; fill:none" points="219.866,1206.56 2352.76,1206.56 "></polyline>
<polyline clip-path="url(#clip932)" style="stroke:#000000; stroke-linecap:round; stroke-linejoin:round; stroke-width:2; stroke-opacity:0.1; fill:none" points="219.866,989.944 2352.76,989.944 "></polyline>
<polyline clip-path="url(#clip932)" style="stroke:#000000; stroke-linecap:round; stroke-linejoin:round; stroke-width:2; stroke-opacity:0.1; fill:none" points="219.866,773.326 2352.76,773.326 "></polyline>
<polyline clip-path="url(#clip932)" style="stroke:#000000; stroke-linecap:round; stroke-linejoin:round; stroke-width:2; stroke-opacity:0.1; fill:none" points="219.866,556.708 2352.76,556.708 "></polyline>
<polyline clip-path="url(#clip932)" style="stroke:#000000; stroke-linecap:round; stroke-linejoin:round; stroke-width:2; stroke-opacity:0.1; fill:none" points="219.866,340.09 2352.76,340.09 "></polyline>
<polyline clip-path="url(#clip930)" style="stroke:#000000; stroke-linecap:round; stroke-linejoin:round; stroke-width:4; stroke-opacity:1; fill:none" points="219.866,1423.18 2352.76,1423.18 "></polyline>
<polyline clip-path="url(#clip930)" style="stroke:#000000; stroke-linecap:round; stroke-linejoin:round; stroke-width:4; stroke-opacity:1; fill:none" points="280.231,1423.18 280.231,1404.28 "></polyline>
<polyline clip-path="url(#clip930)" style="stroke:#000000; stroke-linecap:round; stroke-linejoin:round; stroke-width:4; stroke-opacity:1; fill:none" points="783.271,1423.18 783.271,1404.28 "></polyline>
<polyline clip-path="url(#clip930)" style="stroke:#000000; stroke-linecap:round; stroke-linejoin:round; stroke-width:4; stroke-opacity:1; fill:none" points="1286.31,1423.18 1286.31,1404.28 "></polyline>
<polyline clip-path="url(#clip930)" style="stroke:#000000; stroke-linecap:round; stroke-linejoin:round; stroke-width:4; stroke-opacity:1; fill:none" points="1789.35,1423.18 1789.35,1404.28 "></polyline>
<polyline clip-path="url(#clip930)" style="stroke:#000000; stroke-linecap:round; stroke-linejoin:round; stroke-width:4; stroke-opacity:1; fill:none" points="2292.39,1423.18 2292.39,1404.28 "></polyline>
<path clip-path="url(#clip930)" d="M243.032 1454.1 Q239.421 1454.1 237.592 1457.66 Q235.787 1461.2 235.787 1468.33 Q235.787 1475.44 237.592 1479.01 Q239.421 1482.55 243.032 1482.55 Q246.666 1482.55 248.472 1479.01 Q250.301 1475.44 250.301 1468.33 Q250.301 1461.2 248.472 1457.66 Q246.666 1454.1 243.032 1454.1 M243.032 1450.39 Q248.842 1450.39 251.898 1455 Q254.977 1459.58 254.977 1468.33 Q254.977 1477.06 251.898 1481.67 Q248.842 1486.25 243.032 1486.25 Q237.222 1486.25 234.143 1481.67 Q231.088 1477.06 231.088 1468.33 Q231.088 1459.58 234.143 1455 Q237.222 1450.39 243.032 1450.39 Z" fill="#000000" fill-rule="nonzero" fill-opacity="1"></path><path clip-path="url(#clip930)" d="M263.194 1479.7 L268.078 1479.7 L268.078 1485.58 L263.194 1485.58 L263.194 1479.7 Z" fill="#000000" fill-rule="nonzero" fill-opacity="1"></path><path clip-path="url(#clip930)" d="M288.263 1454.1 Q284.652 1454.1 282.824 1457.66 Q281.018 1461.2 281.018 1468.33 Q281.018 1475.44 282.824 1479.01 Q284.652 1482.55 288.263 1482.55 Q291.898 1482.55 293.703 1479.01 Q295.532 1475.44 295.532 1468.33 Q295.532 1461.2 293.703 1457.66 Q291.898 1454.1 288.263 1454.1 M288.263 1450.39 Q294.074 1450.39 297.129 1455 Q300.208 1459.58 300.208 1468.33 Q300.208 1477.06 297.129 1481.67 Q294.074 1486.25 288.263 1486.25 Q282.453 1486.25 279.375 1481.67 Q276.319 1477.06 276.319 1468.33 Q276.319 1459.58 279.375 1455 Q282.453 1450.39 288.263 1450.39 Z" fill="#000000" fill-rule="nonzero" fill-opacity="1"></path><path clip-path="url(#clip930)" d="M308.472 1451.02 L326.828 1451.02 L326.828 1454.96 L312.754 1454.96 L312.754 1463.43 Q313.773 1463.08 314.791 1462.92 Q315.81 1462.73 316.828 1462.73 Q322.615 1462.73 325.995 1465.9 Q329.374 1469.08 329.374 1474.49 Q329.374 1480.07 325.902 1483.17 Q322.43 1486.25 316.111 1486.25 Q313.935 1486.25 311.666 1485.88 Q309.421 1485.51 307.013 1484.77 L307.013 1480.07 Q309.097 1481.2 311.319 1481.76 Q313.541 1482.32 316.018 1482.32 Q320.023 1482.32 322.36 1480.21 Q324.698 1478.1 324.698 1474.49 Q324.698 1470.88 322.36 1468.77 Q320.023 1466.67 316.018 1466.67 Q314.143 1466.67 312.268 1467.08 Q310.416 1467.5 308.472 1468.38 L308.472 1451.02 Z" fill="#000000" fill-rule="nonzero" fill-opacity="1"></path><path clip-path="url(#clip930)" d="M745.575 1454.1 Q741.963 1454.1 740.135 1457.66 Q738.329 1461.2 738.329 1468.33 Q738.329 1475.44 740.135 1479.01 Q741.963 1482.55 745.575 1482.55 Q749.209 1482.55 751.014 1479.01 Q752.843 1475.44 752.843 1468.33 Q752.843 1461.2 751.014 1457.66 Q749.209 1454.1 745.575 1454.1 M745.575 1450.39 Q751.385 1450.39 754.44 1455 Q757.519 1459.58 757.519 1468.33 Q757.519 1477.06 754.44 1481.67 Q751.385 1486.25 745.575 1486.25 Q739.764 1486.25 736.686 1481.67 Q733.63 1477.06 733.63 1468.33 Q733.63 1459.58 736.686 1455 Q739.764 1450.39 745.575 1450.39 Z" fill="#000000" fill-rule="nonzero" fill-opacity="1"></path><path clip-path="url(#clip930)" d="M765.736 1479.7 L770.621 1479.7 L770.621 1485.58 L765.736 1485.58 L765.736 1479.7 Z" fill="#000000" fill-rule="nonzero" fill-opacity="1"></path><path clip-path="url(#clip930)" d="M781.616 1481.64 L789.255 1481.64 L789.255 1455.28 L780.945 1456.95 L780.945 1452.69 L789.209 1451.02 L793.884 1451.02 L793.884 1481.64 L801.523 1481.64 L801.523 1485.58 L781.616 1485.58 L781.616 1481.64 Z" fill="#000000" fill-rule="nonzero" fill-opacity="1"></path><path clip-path="url(#clip930)" d="M820.968 1454.1 Q817.357 1454.1 815.528 1457.66 Q813.722 1461.2 813.722 1468.33 Q813.722 1475.44 815.528 1479.01 Q817.357 1482.55 820.968 1482.55 Q824.602 1482.55 826.407 1479.01 Q828.236 1475.44 828.236 1468.33 Q828.236 1461.2 826.407 1457.66 Q824.602 1454.1 820.968 1454.1 M820.968 1450.39 Q826.778 1450.39 829.833 1455 Q832.912 1459.58 832.912 1468.33 Q832.912 1477.06 829.833 1481.67 Q826.778 1486.25 820.968 1486.25 Q815.157 1486.25 812.079 1481.67 Q809.023 1477.06 809.023 1468.33 Q809.023 1459.58 812.079 1455 Q815.157 1450.39 820.968 1450.39 Z" fill="#000000" fill-rule="nonzero" fill-opacity="1"></path><path clip-path="url(#clip930)" d="M1249.11 1454.1 Q1245.5 1454.1 1243.67 1457.66 Q1241.87 1461.2 1241.87 1468.33 Q1241.87 1475.44 1243.67 1479.01 Q1245.5 1482.55 1249.11 1482.55 Q1252.75 1482.55 1254.55 1479.01 Q1256.38 1475.44 1256.38 1468.33 Q1256.38 1461.2 1254.55 1457.66 Q1252.75 1454.1 1249.11 1454.1 M1249.11 1450.39 Q1254.92 1450.39 1257.98 1455 Q1261.06 1459.58 1261.06 1468.33 Q1261.06 1477.06 1257.98 1481.67 Q1254.92 1486.25 1249.11 1486.25 Q1243.3 1486.25 1240.22 1481.67 Q1237.17 1477.06 1237.17 1468.33 Q1237.17 1459.58 1240.22 1455 Q1243.3 1450.39 1249.11 1450.39 Z" fill="#000000" fill-rule="nonzero" fill-opacity="1"></path><path clip-path="url(#clip930)" d="M1269.27 1479.7 L1274.16 1479.7 L1274.16 1485.58 L1269.27 1485.58 L1269.27 1479.7 Z" fill="#000000" fill-rule="nonzero" fill-opacity="1"></path><path clip-path="url(#clip930)" d="M1285.15 1481.64 L1292.79 1481.64 L1292.79 1455.28 L1284.48 1456.95 L1284.48 1452.69 L1292.75 1451.02 L1297.42 1451.02 L1297.42 1481.64 L1305.06 1481.64 L1305.06 1485.58 L1285.15 1485.58 L1285.15 1481.64 Z" fill="#000000" fill-rule="nonzero" fill-opacity="1"></path><path clip-path="url(#clip930)" d="M1314.55 1451.02 L1332.91 1451.02 L1332.91 1454.96 L1318.83 1454.96 L1318.83 1463.43 Q1319.85 1463.08 1320.87 1462.92 Q1321.89 1462.73 1322.91 1462.73 Q1328.7 1462.73 1332.07 1465.9 Q1335.45 1469.08 1335.45 1474.49 Q1335.45 1480.07 1331.98 1483.17 Q1328.51 1486.25 1322.19 1486.25 Q1320.01 1486.25 1317.75 1485.88 Q1315.5 1485.51 1313.09 1484.77 L1313.09 1480.07 Q1315.18 1481.2 1317.4 1481.76 Q1319.62 1482.32 1322.1 1482.32 Q1326.1 1482.32 1328.44 1480.21 Q1330.78 1478.1 1330.78 1474.49 Q1330.78 1470.88 1328.44 1468.77 Q1326.1 1466.67 1322.1 1466.67 Q1320.22 1466.67 1318.35 1467.08 Q1316.5 1467.5 1314.55 1468.38 L1314.55 1451.02 Z" fill="#000000" fill-rule="nonzero" fill-opacity="1"></path><path clip-path="url(#clip930)" d="M1751.65 1454.1 Q1748.04 1454.1 1746.21 1457.66 Q1744.41 1461.2 1744.41 1468.33 Q1744.41 1475.44 1746.21 1479.01 Q1748.04 1482.55 1751.65 1482.55 Q1755.29 1482.55 1757.09 1479.01 Q1758.92 1475.44 1758.92 1468.33 Q1758.92 1461.2 1757.09 1457.66 Q1755.29 1454.1 1751.65 1454.1 M1751.65 1450.39 Q1757.46 1450.39 1760.52 1455 Q1763.6 1459.58 1763.6 1468.33 Q1763.6 1477.06 1760.52 1481.67 Q1757.46 1486.25 1751.65 1486.25 Q1745.84 1486.25 1742.77 1481.67 Q1739.71 1477.06 1739.71 1468.33 Q1739.71 1459.58 1742.77 1455 Q1745.84 1450.39 1751.65 1450.39 Z" fill="#000000" fill-rule="nonzero" fill-opacity="1"></path><path clip-path="url(#clip930)" d="M1771.82 1479.7 L1776.7 1479.7 L1776.7 1485.58 L1771.82 1485.58 L1771.82 1479.7 Z" fill="#000000" fill-rule="nonzero" fill-opacity="1"></path><path clip-path="url(#clip930)" d="M1790.91 1481.64 L1807.23 1481.64 L1807.23 1485.58 L1785.29 1485.58 L1785.29 1481.64 Q1787.95 1478.89 1792.53 1474.26 Q1797.14 1469.61 1798.32 1468.27 Q1800.57 1465.74 1801.45 1464.01 Q1802.35 1462.25 1802.35 1460.56 Q1802.35 1457.8 1800.4 1456.07 Q1798.48 1454.33 1795.38 1454.33 Q1793.18 1454.33 1790.73 1455.09 Q1788.3 1455.86 1785.52 1457.41 L1785.52 1452.69 Q1788.34 1451.55 1790.8 1450.97 Q1793.25 1450.39 1795.29 1450.39 Q1800.66 1450.39 1803.85 1453.08 Q1807.05 1455.77 1807.05 1460.26 Q1807.05 1462.39 1806.24 1464.31 Q1805.45 1466.2 1803.34 1468.8 Q1802.77 1469.47 1799.66 1472.69 Q1796.56 1475.88 1790.91 1481.64 Z" fill="#000000" fill-rule="nonzero" fill-opacity="1"></path><path clip-path="url(#clip930)" d="M1827.05 1454.1 Q1823.44 1454.1 1821.61 1457.66 Q1819.8 1461.2 1819.8 1468.33 Q1819.8 1475.44 1821.61 1479.01 Q1823.44 1482.55 1827.05 1482.55 Q1830.68 1482.55 1832.49 1479.01 Q1834.32 1475.44 1834.32 1468.33 Q1834.32 1461.2 1832.49 1457.66 Q1830.68 1454.1 1827.05 1454.1 M1827.05 1450.39 Q1832.86 1450.39 1835.91 1455 Q1838.99 1459.58 1838.99 1468.33 Q1838.99 1477.06 1835.91 1481.67 Q1832.86 1486.25 1827.05 1486.25 Q1821.24 1486.25 1818.16 1481.67 Q1815.1 1477.06 1815.1 1468.33 Q1815.1 1459.58 1818.16 1455 Q1821.24 1450.39 1827.05 1450.39 Z" fill="#000000" fill-rule="nonzero" fill-opacity="1"></path><path clip-path="url(#clip930)" d="M2255.19 1454.1 Q2251.58 1454.1 2249.75 1457.66 Q2247.95 1461.2 2247.95 1468.33 Q2247.95 1475.44 2249.75 1479.01 Q2251.58 1482.55 2255.19 1482.55 Q2258.83 1482.55 2260.63 1479.01 Q2262.46 1475.44 2262.46 1468.33 Q2262.46 1461.2 2260.63 1457.66 Q2258.83 1454.1 2255.19 1454.1 M2255.19 1450.39 Q2261 1450.39 2264.06 1455 Q2267.14 1459.58 2267.14 1468.33 Q2267.14 1477.06 2264.06 1481.67 Q2261 1486.25 2255.19 1486.25 Q2249.38 1486.25 2246.3 1481.67 Q2243.25 1477.06 2243.25 1468.33 Q2243.25 1459.58 2246.3 1455 Q2249.38 1450.39 2255.19 1450.39 Z" fill="#000000" fill-rule="nonzero" fill-opacity="1"></path><path clip-path="url(#clip930)" d="M2275.35 1479.7 L2280.24 1479.7 L2280.24 1485.58 L2275.35 1485.58 L2275.35 1479.7 Z" fill="#000000" fill-rule="nonzero" fill-opacity="1"></path><path clip-path="url(#clip930)" d="M2294.45 1481.64 L2310.77 1481.64 L2310.77 1485.58 L2288.83 1485.58 L2288.83 1481.64 Q2291.49 1478.89 2296.07 1474.26 Q2300.68 1469.61 2301.86 1468.27 Q2304.1 1465.74 2304.98 1464.01 Q2305.89 1462.25 2305.89 1460.56 Q2305.89 1457.8 2303.94 1456.07 Q2302.02 1454.33 2298.92 1454.33 Q2296.72 1454.33 2294.27 1455.09 Q2291.84 1455.86 2289.06 1457.41 L2289.06 1452.69 Q2291.88 1451.55 2294.34 1450.97 Q2296.79 1450.39 2298.83 1450.39 Q2304.2 1450.39 2307.39 1453.08 Q2310.59 1455.77 2310.59 1460.26 Q2310.59 1462.39 2309.78 1464.31 Q2308.99 1466.2 2306.88 1468.8 Q2306.3 1469.47 2303.2 1472.69 Q2300.1 1475.88 2294.45 1481.64 Z" fill="#000000" fill-rule="nonzero" fill-opacity="1"></path><path clip-path="url(#clip930)" d="M2320.63 1451.02 L2338.99 1451.02 L2338.99 1454.96 L2324.91 1454.96 L2324.91 1463.43 Q2325.93 1463.08 2326.95 1462.92 Q2327.97 1462.73 2328.99 1462.73 Q2334.78 1462.73 2338.15 1465.9 Q2341.53 1469.08 2341.53 1474.49 Q2341.53 1480.07 2338.06 1483.17 Q2334.59 1486.25 2328.27 1486.25 Q2326.09 1486.25 2323.83 1485.88 Q2321.58 1485.51 2319.17 1484.77 L2319.17 1480.07 Q2321.26 1481.2 2323.48 1481.76 Q2325.7 1482.32 2328.18 1482.32 Q2332.18 1482.32 2334.52 1480.21 Q2336.86 1478.1 2336.86 1474.49 Q2336.86 1470.88 2334.52 1468.77 Q2332.18 1466.67 2328.18 1466.67 Q2326.3 1466.67 2324.43 1467.08 Q2322.58 1467.5 2320.63 1468.38 L2320.63 1451.02 Z" fill="#000000" fill-rule="nonzero" fill-opacity="1"></path><path clip-path="url(#clip930)" d="M1296.75 1537.87 Q1295.76 1537.3 1294.59 1537.04 Q1293.44 1536.76 1292.04 1536.76 Q1287.07 1536.76 1284.4 1540 Q1281.76 1543.22 1281.76 1549.27 L1281.76 1568.04 L1275.87 1568.04 L1275.87 1532.4 L1281.76 1532.4 L1281.76 1537.93 Q1283.61 1534.69 1286.57 1533.13 Q1289.53 1531.54 1293.76 1531.54 Q1294.36 1531.54 1295.1 1531.63 Q1295.83 1531.7 1296.72 1531.85 L1296.75 1537.87 Z" fill="#000000" fill-rule="nonzero" fill-opacity="1"></path><polyline clip-path="url(#clip930)" style="stroke:#000000; stroke-linecap:round; stroke-linejoin:round; stroke-width:4; stroke-opacity:1; fill:none" points="219.866,1423.18 219.866,123.472 "></polyline>
<polyline clip-path="url(#clip930)" style="stroke:#000000; stroke-linecap:round; stroke-linejoin:round; stroke-width:4; stroke-opacity:1; fill:none" points="219.866,1423.18 238.764,1423.18 "></polyline>
<polyline clip-path="url(#clip930)" style="stroke:#000000; stroke-linecap:round; stroke-linejoin:round; stroke-width:4; stroke-opacity:1; fill:none" points="219.866,1206.56 238.764,1206.56 "></polyline>
<polyline clip-path="url(#clip930)" style="stroke:#000000; stroke-linecap:round; stroke-linejoin:round; stroke-width:4; stroke-opacity:1; fill:none" points="219.866,989.944 238.764,989.944 "></polyline>
<polyline clip-path="url(#clip930)" style="stroke:#000000; stroke-linecap:round; stroke-linejoin:round; stroke-width:4; stroke-opacity:1; fill:none" points="219.866,773.326 238.764,773.326 "></polyline>
<polyline clip-path="url(#clip930)" style="stroke:#000000; stroke-linecap:round; stroke-linejoin:round; stroke-width:4; stroke-opacity:1; fill:none" points="219.866,556.708 238.764,556.708 "></polyline>
<polyline clip-path="url(#clip930)" style="stroke:#000000; stroke-linecap:round; stroke-linejoin:round; stroke-width:4; stroke-opacity:1; fill:none" points="219.866,340.09 238.764,340.09 "></polyline>
<path clip-path="url(#clip930)" d="M126.691 1408.98 Q123.08 1408.98 121.251 1412.54 Q119.445 1416.08 119.445 1423.21 Q119.445 1430.32 121.251 1433.89 Q123.08 1437.43 126.691 1437.43 Q130.325 1437.43 132.13 1433.89 Q133.959 1430.32 133.959 1423.21 Q133.959 1416.08 132.13 1412.54 Q130.325 1408.98 126.691 1408.98 M126.691 1405.27 Q132.501 1405.27 135.556 1409.88 Q138.635 1414.46 138.635 1423.21 Q138.635 1431.94 135.556 1436.55 Q132.501 1441.13 126.691 1441.13 Q120.88 1441.13 117.802 1436.55 Q114.746 1431.94 114.746 1423.21 Q114.746 1414.46 117.802 1409.88 Q120.88 1405.27 126.691 1405.27 Z" fill="#000000" fill-rule="nonzero" fill-opacity="1"></path><path clip-path="url(#clip930)" d="M146.853 1434.58 L151.737 1434.58 L151.737 1440.46 L146.853 1440.46 L146.853 1434.58 Z" fill="#000000" fill-rule="nonzero" fill-opacity="1"></path><path clip-path="url(#clip930)" d="M171.922 1408.98 Q168.311 1408.98 166.482 1412.54 Q164.677 1416.08 164.677 1423.21 Q164.677 1430.32 166.482 1433.89 Q168.311 1437.43 171.922 1437.43 Q175.556 1437.43 177.362 1433.89 Q179.19 1430.32 179.19 1423.21 Q179.19 1416.08 177.362 1412.54 Q175.556 1408.98 171.922 1408.98 M171.922 1405.27 Q177.732 1405.27 180.788 1409.88 Q183.866 1414.46 183.866 1423.21 Q183.866 1431.94 180.788 1436.55 Q177.732 1441.13 171.922 1441.13 Q166.112 1441.13 163.033 1436.55 Q159.978 1431.94 159.978 1423.21 Q159.978 1414.46 163.033 1409.88 Q166.112 1405.27 171.922 1405.27 Z" fill="#000000" fill-rule="nonzero" fill-opacity="1"></path><path clip-path="url(#clip930)" d="M127.917 1192.36 Q124.306 1192.36 122.478 1195.93 Q120.672 1199.47 120.672 1206.6 Q120.672 1213.7 122.478 1217.27 Q124.306 1220.81 127.917 1220.81 Q131.552 1220.81 133.357 1217.27 Q135.186 1213.7 135.186 1206.6 Q135.186 1199.47 133.357 1195.93 Q131.552 1192.36 127.917 1192.36 M127.917 1188.66 Q133.728 1188.66 136.783 1193.26 Q139.862 1197.85 139.862 1206.6 Q139.862 1215.32 136.783 1219.93 Q133.728 1224.51 127.917 1224.51 Q122.107 1224.51 119.029 1219.93 Q115.973 1215.32 115.973 1206.6 Q115.973 1197.85 119.029 1193.26 Q122.107 1188.66 127.917 1188.66 Z" fill="#000000" fill-rule="nonzero" fill-opacity="1"></path><path clip-path="url(#clip930)" d="M148.079 1217.96 L152.964 1217.96 L152.964 1223.84 L148.079 1223.84 L148.079 1217.96 Z" fill="#000000" fill-rule="nonzero" fill-opacity="1"></path><path clip-path="url(#clip930)" d="M163.959 1219.91 L171.598 1219.91 L171.598 1193.54 L163.288 1195.21 L163.288 1190.95 L171.552 1189.28 L176.227 1189.28 L176.227 1219.91 L183.866 1219.91 L183.866 1223.84 L163.959 1223.84 L163.959 1219.91 Z" fill="#000000" fill-rule="nonzero" fill-opacity="1"></path><path clip-path="url(#clip930)" d="M128.288 975.743 Q124.677 975.743 122.848 979.307 Q121.043 982.849 121.043 989.979 Q121.043 997.085 122.848 1000.65 Q124.677 1004.19 128.288 1004.19 Q131.922 1004.19 133.728 1000.65 Q135.556 997.085 135.556 989.979 Q135.556 982.849 133.728 979.307 Q131.922 975.743 128.288 975.743 M128.288 972.039 Q134.098 972.039 137.154 976.645 Q140.232 981.229 140.232 989.979 Q140.232 998.705 137.154 1003.31 Q134.098 1007.9 128.288 1007.9 Q122.478 1007.9 119.399 1003.31 Q116.343 998.705 116.343 989.979 Q116.343 981.229 119.399 976.645 Q122.478 972.039 128.288 972.039 Z" fill="#000000" fill-rule="nonzero" fill-opacity="1"></path><path clip-path="url(#clip930)" d="M148.45 1001.34 L153.334 1001.34 L153.334 1007.22 L148.45 1007.22 L148.45 1001.34 Z" fill="#000000" fill-rule="nonzero" fill-opacity="1"></path><path clip-path="url(#clip930)" d="M167.547 1003.29 L183.866 1003.29 L183.866 1007.22 L161.922 1007.22 L161.922 1003.29 Q164.584 1000.53 169.167 995.905 Q173.774 991.252 174.954 989.909 Q177.2 987.386 178.079 985.65 Q178.982 983.891 178.982 982.201 Q178.982 979.446 177.038 977.71 Q175.116 975.974 172.014 975.974 Q169.815 975.974 167.362 976.738 Q164.931 977.502 162.153 979.053 L162.153 974.331 Q164.977 973.196 167.431 972.618 Q169.885 972.039 171.922 972.039 Q177.292 972.039 180.487 974.724 Q183.681 977.409 183.681 981.9 Q183.681 984.03 182.871 985.951 Q182.084 987.849 179.977 990.442 Q179.399 991.113 176.297 994.33 Q173.195 997.525 167.547 1003.29 Z" fill="#000000" fill-rule="nonzero" fill-opacity="1"></path><path clip-path="url(#clip930)" d="M127.339 759.125 Q123.728 759.125 121.899 762.689 Q120.093 766.231 120.093 773.361 Q120.093 780.467 121.899 784.032 Q123.728 787.574 127.339 787.574 Q130.973 787.574 132.779 784.032 Q134.607 780.467 134.607 773.361 Q134.607 766.231 132.779 762.689 Q130.973 759.125 127.339 759.125 M127.339 755.421 Q133.149 755.421 136.204 760.027 Q139.283 764.611 139.283 773.361 Q139.283 782.088 136.204 786.694 Q133.149 791.277 127.339 791.277 Q121.529 791.277 118.45 786.694 Q115.394 782.088 115.394 773.361 Q115.394 764.611 118.45 760.027 Q121.529 755.421 127.339 755.421 Z" fill="#000000" fill-rule="nonzero" fill-opacity="1"></path><path clip-path="url(#clip930)" d="M147.501 784.726 L152.385 784.726 L152.385 790.606 L147.501 790.606 L147.501 784.726 Z" fill="#000000" fill-rule="nonzero" fill-opacity="1"></path><path clip-path="url(#clip930)" d="M176.737 771.972 Q180.093 772.689 181.968 774.958 Q183.866 777.226 183.866 780.56 Q183.866 785.675 180.348 788.476 Q176.829 791.277 170.348 791.277 Q168.172 791.277 165.857 790.837 Q163.565 790.421 161.112 789.564 L161.112 785.05 Q163.056 786.185 165.371 786.763 Q167.686 787.342 170.209 787.342 Q174.607 787.342 176.899 785.606 Q179.214 783.87 179.214 780.56 Q179.214 777.504 177.061 775.791 Q174.931 774.055 171.112 774.055 L167.084 774.055 L167.084 770.213 L171.297 770.213 Q174.746 770.213 176.575 768.847 Q178.403 767.458 178.403 764.865 Q178.403 762.203 176.505 760.791 Q174.63 759.356 171.112 759.356 Q169.19 759.356 166.991 759.773 Q164.792 760.189 162.153 761.069 L162.153 756.902 Q164.815 756.162 167.13 755.791 Q169.468 755.421 171.528 755.421 Q176.852 755.421 179.954 757.852 Q183.056 760.259 183.056 764.379 Q183.056 767.25 181.413 769.24 Q179.769 771.208 176.737 771.972 Z" fill="#000000" fill-rule="nonzero" fill-opacity="1"></path><path clip-path="url(#clip930)" d="M126.205 542.507 Q122.593 542.507 120.765 546.072 Q118.959 549.613 118.959 556.743 Q118.959 563.849 120.765 567.414 Q122.593 570.956 126.205 570.956 Q129.839 570.956 131.644 567.414 Q133.473 563.849 133.473 556.743 Q133.473 549.613 131.644 546.072 Q129.839 542.507 126.205 542.507 M126.205 538.803 Q132.015 538.803 135.07 543.409 Q138.149 547.993 138.149 556.743 Q138.149 565.47 135.07 570.076 Q132.015 574.659 126.205 574.659 Q120.394 574.659 117.316 570.076 Q114.26 565.47 114.26 556.743 Q114.26 547.993 117.316 543.409 Q120.394 538.803 126.205 538.803 Z" fill="#000000" fill-rule="nonzero" fill-opacity="1"></path><path clip-path="url(#clip930)" d="M146.366 568.108 L151.251 568.108 L151.251 573.988 L146.366 573.988 L146.366 568.108 Z" fill="#000000" fill-rule="nonzero" fill-opacity="1"></path><path clip-path="url(#clip930)" d="M174.283 543.502 L162.477 561.951 L174.283 561.951 L174.283 543.502 M173.056 539.428 L178.936 539.428 L178.936 561.951 L183.866 561.951 L183.866 565.84 L178.936 565.84 L178.936 573.988 L174.283 573.988 L174.283 565.84 L158.681 565.84 L158.681 561.326 L173.056 539.428 Z" fill="#000000" fill-rule="nonzero" fill-opacity="1"></path><path clip-path="url(#clip930)" d="M127.686 325.889 Q124.075 325.889 122.246 329.454 Q120.441 332.995 120.441 340.125 Q120.441 347.231 122.246 350.796 Q124.075 354.338 127.686 354.338 Q131.32 354.338 133.126 350.796 Q134.954 347.231 134.954 340.125 Q134.954 332.995 133.126 329.454 Q131.32 325.889 127.686 325.889 M127.686 322.185 Q133.496 322.185 136.552 326.792 Q139.63 331.375 139.63 340.125 Q139.63 348.852 136.552 353.458 Q133.496 358.041 127.686 358.041 Q121.876 358.041 118.797 353.458 Q115.742 348.852 115.742 340.125 Q115.742 331.375 118.797 326.792 Q121.876 322.185 127.686 322.185 Z" fill="#000000" fill-rule="nonzero" fill-opacity="1"></path><path clip-path="url(#clip930)" d="M147.848 351.49 L152.732 351.49 L152.732 357.37 L147.848 357.37 L147.848 351.49 Z" fill="#000000" fill-rule="nonzero" fill-opacity="1"></path><path clip-path="url(#clip930)" d="M162.964 322.81 L181.32 322.81 L181.32 326.745 L167.246 326.745 L167.246 335.217 Q168.264 334.87 169.283 334.708 Q170.302 334.523 171.32 334.523 Q177.107 334.523 180.487 337.694 Q183.866 340.866 183.866 346.282 Q183.866 351.861 180.394 354.963 Q176.922 358.041 170.602 358.041 Q168.427 358.041 166.158 357.671 Q163.913 357.301 161.505 356.56 L161.505 351.861 Q163.589 352.995 165.811 353.551 Q168.033 354.106 170.51 354.106 Q174.514 354.106 176.852 352 Q179.19 349.893 179.19 346.282 Q179.19 342.671 176.852 340.565 Q174.514 338.458 170.51 338.458 Q168.635 338.458 166.76 338.875 Q164.908 339.291 162.964 340.171 L162.964 322.81 Z" fill="#000000" fill-rule="nonzero" fill-opacity="1"></path><path clip-path="url(#clip930)" d="M21.7677 906.353 L39.6235 906.353 L39.6235 898.269 Q39.6235 893.781 37.3 891.33 Q34.9765 888.879 30.6797 888.879 Q26.4147 888.879 24.0912 891.33 Q21.7677 893.781 21.7677 898.269 L21.7677 906.353 M16.4842 912.783 L16.4842 898.269 Q16.4842 890.28 20.1126 886.206 Q23.7092 882.1 30.6797 882.1 Q37.7138 882.1 41.3104 886.206 Q44.907 890.28 44.907 898.269 L44.907 906.353 L64.0042 906.353 L64.0042 912.783 L16.4842 912.783 Z" fill="#000000" fill-rule="nonzero" fill-opacity="1"></path><path clip-path="url(#clip930)" d="M33.8307 854.218 Q33.2578 855.205 33.0032 856.383 Q32.7167 857.528 32.7167 858.929 Q32.7167 863.894 35.9632 866.568 Q39.1779 869.209 45.2253 869.209 L64.0042 869.209 L64.0042 875.098 L28.3562 875.098 L28.3562 869.209 L33.8944 869.209 Q30.6479 867.363 29.0883 864.403 Q27.4968 861.443 27.4968 857.21 Q27.4968 856.605 27.5923 855.873 Q27.656 855.141 27.8151 854.25 L33.8307 854.218 Z" fill="#000000" fill-rule="nonzero" fill-opacity="1"></path><path clip-path="url(#clip930)" d="M44.7161 819.016 L47.5806 819.016 L47.5806 845.943 Q53.6281 845.561 56.8109 842.314 Q59.9619 839.036 59.9619 833.211 Q59.9619 829.838 59.1344 826.687 Q58.3069 823.504 56.6518 820.384 L62.1899 820.384 Q63.5267 823.535 64.227 826.846 Q64.9272 830.156 64.9272 833.561 Q64.9272 842.092 59.9619 847.089 Q54.9967 852.054 46.5303 852.054 Q37.7774 852.054 32.6531 847.343 Q27.4968 842.601 27.4968 834.58 Q27.4968 827.387 32.1438 823.217 Q36.7589 819.016 44.7161 819.016 M42.9973 824.872 Q38.1912 824.936 35.3266 827.578 Q32.4621 830.188 32.4621 834.516 Q32.4621 839.418 35.2312 842.378 Q38.0002 845.306 43.0292 845.752 L42.9973 824.872 Z" fill="#000000" fill-rule="nonzero" fill-opacity="1"></path><path clip-path="url(#clip930)" d="M29.7248 783.75 L35.1993 783.75 Q33.8307 786.232 33.1623 788.747 Q32.4621 791.23 32.4621 793.776 Q32.4621 799.473 36.0905 802.624 Q39.6872 805.775 46.212 805.775 Q52.7369 805.775 56.3653 802.624 Q59.9619 799.473 59.9619 793.776 Q59.9619 791.23 59.2935 788.747 Q58.5933 786.232 57.2247 783.75 L62.6355 783.75 Q63.7814 786.201 64.3543 788.842 Q64.9272 791.452 64.9272 794.412 Q64.9272 802.465 59.8664 807.207 Q54.8057 811.95 46.212 811.95 Q37.491 811.95 32.4939 807.176 Q27.4968 802.37 27.4968 794.03 Q27.4968 791.325 28.0697 788.747 Q28.6108 786.169 29.7248 783.75 Z" fill="#000000" fill-rule="nonzero" fill-opacity="1"></path><path clip-path="url(#clip930)" d="M28.3562 773.565 L28.3562 767.708 L64.0042 767.708 L64.0042 773.565 L28.3562 773.565 M14.479 773.565 L14.479 767.708 L21.895 767.708 L21.895 773.565 L14.479 773.565 Z" fill="#000000" fill-rule="nonzero" fill-opacity="1"></path><path clip-path="url(#clip930)" d="M29.4065 732.729 L34.9447 732.729 Q33.6716 735.211 33.035 737.885 Q32.3984 740.559 32.3984 743.423 Q32.3984 747.784 33.7352 749.98 Q35.072 752.144 37.7456 752.144 Q39.7826 752.144 40.9603 750.584 Q42.1061 749.025 43.1565 744.314 L43.6021 742.309 Q44.9389 736.071 47.3897 733.461 Q49.8086 730.819 54.1691 730.819 Q59.1344 730.819 62.0308 734.766 Q64.9272 738.681 64.9272 745.556 Q64.9272 748.42 64.3543 751.539 Q63.8132 754.627 62.6992 758.064 L56.6518 758.064 Q58.3387 754.818 59.198 751.667 Q60.0256 748.516 60.0256 745.428 Q60.0256 741.291 58.6251 739.063 Q57.1929 736.835 54.6147 736.835 Q52.2276 736.835 50.9545 738.458 Q49.6813 740.049 48.5037 745.492 L48.0262 747.529 Q46.8804 752.972 44.5251 755.391 Q42.138 757.81 38.0002 757.81 Q32.9713 757.81 30.2341 754.245 Q27.4968 750.68 27.4968 744.123 Q27.4968 740.877 27.9743 738.012 Q28.4517 735.148 29.4065 732.729 Z" fill="#000000" fill-rule="nonzero" fill-opacity="1"></path><path clip-path="url(#clip930)" d="M28.3562 721.493 L28.3562 715.637 L64.0042 715.637 L64.0042 721.493 L28.3562 721.493 M14.479 721.493 L14.479 715.637 L21.895 715.637 L21.895 721.493 L14.479 721.493 Z" fill="#000000" fill-rule="nonzero" fill-opacity="1"></path><path clip-path="url(#clip930)" d="M32.4621 689.569 Q32.4621 694.28 36.1542 697.017 Q39.8145 699.754 46.212 699.754 Q52.6095 699.754 56.3017 697.049 Q59.9619 694.312 59.9619 689.569 Q59.9619 684.89 56.2698 682.153 Q52.5777 679.416 46.212 679.416 Q39.8781 679.416 36.186 682.153 Q32.4621 684.89 32.4621 689.569 M27.4968 689.569 Q27.4968 681.93 32.4621 677.57 Q37.4273 673.209 46.212 673.209 Q54.9649 673.209 59.9619 677.57 Q64.9272 681.93 64.9272 689.569 Q64.9272 697.24 59.9619 701.6 Q54.9649 705.929 46.212 705.929 Q37.4273 705.929 32.4621 701.6 Q27.4968 697.24 27.4968 689.569 Z" fill="#000000" fill-rule="nonzero" fill-opacity="1"></path><path clip-path="url(#clip930)" d="M42.4881 633.869 L64.0042 633.869 L64.0042 639.726 L42.679 639.726 Q37.6183 639.726 35.1038 641.699 Q32.5894 643.672 32.5894 647.619 Q32.5894 652.362 35.6131 655.099 Q38.6368 657.836 43.8567 657.836 L64.0042 657.836 L64.0042 663.724 L28.3562 663.724 L28.3562 657.836 L33.8944 657.836 Q30.6797 655.735 29.0883 652.903 Q27.4968 650.038 27.4968 646.314 Q27.4968 640.171 31.3163 637.02 Q35.1038 633.869 42.4881 633.869 Z" fill="#000000" fill-rule="nonzero" fill-opacity="1"></path><path clip-path="url(#clip930)" d="M828.336 18.8205 L828.336 41.5461 L838.625 41.5461 Q844.337 41.5461 847.456 38.5889 Q850.576 35.6318 850.576 30.163 Q850.576 24.7348 847.456 21.7777 Q844.337 18.8205 838.625 18.8205 L828.336 18.8205 M820.153 12.096 L838.625 12.096 Q848.793 12.096 853.978 16.714 Q859.204 21.2916 859.204 30.163 Q859.204 39.1155 853.978 43.6931 Q848.793 48.2706 838.625 48.2706 L828.336 48.2706 L828.336 72.576 L820.153 72.576 L820.153 12.096 Z" fill="#000000" fill-rule="nonzero" fill-opacity="1"></path><path clip-path="url(#clip930)" d="M894.69 34.1734 Q893.434 33.4443 891.935 33.1202 Q890.477 32.7556 888.695 32.7556 Q882.375 32.7556 878.972 36.8875 Q875.61 40.9789 875.61 48.6757 L875.61 72.576 L868.116 72.576 L868.116 27.2059 L875.61 27.2059 L875.61 34.2544 Q877.96 30.1225 881.727 28.1376 Q885.494 26.1121 890.882 26.1121 Q891.652 26.1121 892.583 26.2337 Q893.515 26.3147 894.649 26.5172 L894.69 34.1734 Z" fill="#000000" fill-rule="nonzero" fill-opacity="1"></path><path clip-path="url(#clip930)" d="M939.493 48.0275 L939.493 51.6733 L905.222 51.6733 Q905.708 59.3701 909.84 63.421 Q914.013 67.4314 921.426 67.4314 Q925.72 67.4314 929.73 66.3781 Q933.781 65.3249 937.751 63.2184 L937.751 70.267 Q933.741 71.9684 929.528 72.8596 Q925.315 73.7508 920.98 73.7508 Q910.124 73.7508 903.764 67.4314 Q897.445 61.1119 897.445 50.3365 Q897.445 39.1965 903.44 32.6746 Q909.476 26.1121 919.684 26.1121 Q928.839 26.1121 934.146 32.0264 Q939.493 37.9003 939.493 48.0275 M932.039 45.84 Q931.958 39.7232 928.596 36.0774 Q925.274 32.4315 919.765 32.4315 Q913.527 32.4315 909.759 35.9558 Q906.032 39.4801 905.465 45.8805 L932.039 45.84 Z" fill="#000000" fill-rule="nonzero" fill-opacity="1"></path><path clip-path="url(#clip930)" d="M984.377 28.9478 L984.377 35.9153 Q981.217 34.1734 978.017 33.3227 Q974.857 32.4315 971.617 32.4315 Q964.365 32.4315 960.355 37.0496 Q956.345 41.6271 956.345 49.9314 Q956.345 58.2358 960.355 62.8538 Q964.365 67.4314 971.617 67.4314 Q974.857 67.4314 978.017 66.5807 Q981.217 65.6895 984.377 63.9476 L984.377 70.8341 Q981.258 72.2924 977.895 73.0216 Q974.574 73.7508 970.806 73.7508 Q960.558 73.7508 954.522 67.3098 Q948.486 60.8689 948.486 49.9314 Q948.486 38.832 954.562 32.472 Q960.679 26.1121 971.293 26.1121 Q974.736 26.1121 978.017 26.8413 Q981.298 27.5299 984.377 28.9478 Z" fill="#000000" fill-rule="nonzero" fill-opacity="1"></path><path clip-path="url(#clip930)" d="M997.34 27.2059 L1004.79 27.2059 L1004.79 72.576 L997.34 72.576 L997.34 27.2059 M997.34 9.54393 L1004.79 9.54393 L1004.79 18.9825 L997.34 18.9825 L997.34 9.54393 Z" fill="#000000" fill-rule="nonzero" fill-opacity="1"></path><path clip-path="url(#clip930)" d="M1049.31 28.5427 L1049.31 35.5912 Q1046.15 33.9709 1042.75 33.1607 Q1039.35 32.3505 1035.7 32.3505 Q1030.15 32.3505 1027.36 34.0519 Q1024.6 35.7533 1024.6 39.156 Q1024.6 41.7486 1026.59 43.2475 Q1028.57 44.7058 1034.57 46.0426 L1037.12 46.6097 Q1045.06 48.3111 1048.38 51.4303 Q1051.74 54.509 1051.74 60.0587 Q1051.74 66.3781 1046.72 70.0644 Q1041.74 73.7508 1032.99 73.7508 Q1029.34 73.7508 1025.37 73.0216 Q1021.44 72.3329 1017.07 70.9151 L1017.07 63.2184 Q1021.2 65.3654 1025.21 66.4591 Q1029.22 67.5124 1033.15 67.5124 Q1038.42 67.5124 1041.25 65.73 Q1044.09 63.9071 1044.09 60.6258 Q1044.09 57.5877 1042.02 55.9673 Q1040 54.3469 1033.07 52.8481 L1030.48 52.2405 Q1023.55 50.7821 1020.47 47.7845 Q1017.39 44.7463 1017.39 39.4801 Q1017.39 33.0797 1021.93 29.5959 Q1026.47 26.1121 1034.81 26.1121 Q1038.94 26.1121 1042.59 26.7198 Q1046.23 27.3274 1049.31 28.5427 Z" fill="#000000" fill-rule="nonzero" fill-opacity="1"></path><path clip-path="url(#clip930)" d="M1063.61 27.2059 L1071.07 27.2059 L1071.07 72.576 L1063.61 72.576 L1063.61 27.2059 M1063.61 9.54393 L1071.07 9.54393 L1071.07 18.9825 L1063.61 18.9825 L1063.61 9.54393 Z" fill="#000000" fill-rule="nonzero" fill-opacity="1"></path><path clip-path="url(#clip930)" d="M1104.24 32.4315 Q1098.25 32.4315 1094.76 37.1306 Q1091.28 41.7891 1091.28 49.9314 Q1091.28 58.0738 1094.72 62.7728 Q1098.21 67.4314 1104.24 67.4314 Q1110.2 67.4314 1113.68 62.7323 Q1117.17 58.0333 1117.17 49.9314 Q1117.17 41.8701 1113.68 37.1711 Q1110.2 32.4315 1104.24 32.4315 M1104.24 26.1121 Q1113.97 26.1121 1119.52 32.4315 Q1125.06 38.7509 1125.06 49.9314 Q1125.06 61.0714 1119.52 67.4314 Q1113.97 73.7508 1104.24 73.7508 Q1094.48 73.7508 1088.93 67.4314 Q1083.42 61.0714 1083.42 49.9314 Q1083.42 38.7509 1088.93 32.4315 Q1094.48 26.1121 1104.24 26.1121 Z" fill="#000000" fill-rule="nonzero" fill-opacity="1"></path><path clip-path="url(#clip930)" d="M1175.13 45.1919 L1175.13 72.576 L1167.68 72.576 L1167.68 45.4349 Q1167.68 38.994 1165.17 35.7938 Q1162.66 32.5936 1157.63 32.5936 Q1151.6 32.5936 1148.11 36.4419 Q1144.63 40.2903 1144.63 46.9338 L1144.63 72.576 L1137.14 72.576 L1137.14 27.2059 L1144.63 27.2059 L1144.63 34.2544 Q1147.3 30.163 1150.91 28.1376 Q1154.56 26.1121 1159.29 26.1121 Q1167.11 26.1121 1171.12 30.9732 Q1175.13 35.7938 1175.13 45.1919 Z" fill="#000000" fill-rule="nonzero" fill-opacity="1"></path><path clip-path="url(#clip930)" d="M1211.03 27.2059 L1218.92 27.2059 L1233.1 65.2844 L1247.28 27.2059 L1255.18 27.2059 L1238.17 72.576 L1228.04 72.576 L1211.03 27.2059 Z" fill="#000000" fill-rule="nonzero" fill-opacity="1"></path><path clip-path="url(#clip930)" d="M1294.39 28.5427 L1294.39 35.5912 Q1291.23 33.9709 1287.83 33.1607 Q1284.43 32.3505 1280.78 32.3505 Q1275.23 32.3505 1272.44 34.0519 Q1269.68 35.7533 1269.68 39.156 Q1269.68 41.7486 1271.67 43.2475 Q1273.65 44.7058 1279.65 46.0426 L1282.2 46.6097 Q1290.14 48.3111 1293.46 51.4303 Q1296.82 54.509 1296.82 60.0587 Q1296.82 66.3781 1291.8 70.0644 Q1286.82 73.7508 1278.07 73.7508 Q1274.42 73.7508 1270.45 73.0216 Q1266.52 72.3329 1262.15 70.9151 L1262.15 63.2184 Q1266.28 65.3654 1270.29 66.4591 Q1274.3 67.5124 1278.23 67.5124 Q1283.5 67.5124 1286.33 65.73 Q1289.17 63.9071 1289.17 60.6258 Q1289.17 57.5877 1287.1 55.9673 Q1285.08 54.3469 1278.15 52.8481 L1275.56 52.2405 Q1268.63 50.7821 1265.55 47.7845 Q1262.47 44.7463 1262.47 39.4801 Q1262.47 33.0797 1267.01 29.5959 Q1271.55 26.1121 1279.89 26.1121 Q1284.02 26.1121 1287.67 26.7198 Q1291.31 27.3274 1294.39 28.5427 Z" fill="#000000" fill-rule="nonzero" fill-opacity="1"></path><path clip-path="url(#clip930)" d="M1361.35 34.1734 Q1360.1 33.4443 1358.6 33.1202 Q1357.14 32.7556 1355.36 32.7556 Q1349.04 32.7556 1345.64 36.8875 Q1342.27 40.9789 1342.27 48.6757 L1342.27 72.576 L1334.78 72.576 L1334.78 27.2059 L1342.27 27.2059 L1342.27 34.2544 Q1344.62 30.1225 1348.39 28.1376 Q1352.16 26.1121 1357.55 26.1121 Q1358.32 26.1121 1359.25 26.2337 Q1360.18 26.3147 1361.31 26.5172 L1361.35 34.1734 Z" fill="#000000" fill-rule="nonzero" fill-opacity="1"></path><path clip-path="url(#clip930)" d="M1413.45 9.62495 Q1408.02 18.942 1405.39 28.0566 Q1402.75 37.1711 1402.75 46.5287 Q1402.75 55.8863 1405.39 65.0818 Q1408.06 74.2369 1413.45 83.5134 L1406.97 83.5134 Q1400.89 73.9938 1397.85 64.7983 Q1394.86 55.6027 1394.86 46.5287 Q1394.86 37.4952 1397.85 28.3401 Q1400.85 19.1851 1406.97 9.62495 L1413.45 9.62495 Z" fill="#000000" fill-rule="nonzero" fill-opacity="1"></path><path clip-path="url(#clip930)" d="M1435.36 69.7809 L1435.36 89.8329 L1427.87 89.8329 L1427.87 27.4894 Q1427.87 9.01731 1445.13 9.01731 Q1462.71 9.01731 1462.71 24.6133 Q1462.71 35.7128 1455.74 39.7637 Q1467.08 43.4095 1467.08 54.2254 Q1467.08 73.4267 1447.56 73.4267 Q1438.97 73.4267 1435.36 69.7809 M1435.36 60.0587 Q1439.86 67.0668 1447.84 67.0668 Q1459.51 67.0668 1459.51 54.3469 Q1459.51 42.9234 1440.71 43.8146 L1440.71 36.928 Q1455.42 36.928 1455.42 23.9651 Q1455.42 15.0937 1445.94 15.0937 Q1435.36 15.0937 1435.36 27.7325 L1435.36 60.0587 Z" fill="#000000" fill-rule="nonzero" fill-opacity="1"></path><path clip-path="url(#clip930)" d="M1508.2 34.9026 L1560.13 34.9026 L1560.13 41.7081 L1508.2 41.7081 L1508.2 34.9026 M1508.2 51.4303 L1560.13 51.4303 L1560.13 58.3168 L1508.2 58.3168 L1508.2 51.4303 Z" fill="#000000" fill-rule="nonzero" fill-opacity="1"></path><path clip-path="url(#clip930)" d="M1621.67 17.4837 Q1615.35 17.4837 1612.15 23.7221 Q1608.99 29.92 1608.99 42.3968 Q1608.99 54.833 1612.15 61.0714 Q1615.35 67.2693 1621.67 67.2693 Q1628.03 67.2693 1631.18 61.0714 Q1634.39 54.833 1634.39 42.3968 Q1634.39 29.92 1631.18 23.7221 Q1628.03 17.4837 1621.67 17.4837 M1621.67 11.0023 Q1631.83 11.0023 1637.18 19.0636 Q1642.57 27.0843 1642.57 42.3968 Q1642.57 57.6687 1637.18 65.73 Q1631.83 73.7508 1621.67 73.7508 Q1611.5 73.7508 1606.11 65.73 Q1600.76 57.6687 1600.76 42.3968 Q1600.76 27.0843 1606.11 19.0636 Q1611.5 11.0023 1621.67 11.0023 Z" fill="#000000" fill-rule="nonzero" fill-opacity="1"></path><path clip-path="url(#clip930)" d="M1656.95 62.2867 L1665.5 62.2867 L1665.5 72.576 L1656.95 72.576 L1656.95 62.2867 Z" fill="#000000" fill-rule="nonzero" fill-opacity="1"></path><path clip-path="url(#clip930)" d="M1683.4 12.096 L1715.52 12.096 L1715.52 18.9825 L1690.9 18.9825 L1690.9 33.8088 Q1692.68 33.2012 1694.46 32.9176 Q1696.24 32.5936 1698.02 32.5936 Q1708.15 32.5936 1714.07 38.1433 Q1719.98 43.6931 1719.98 53.1722 Q1719.98 62.9348 1713.9 68.3631 Q1707.83 73.7508 1696.77 73.7508 Q1692.96 73.7508 1688.99 73.1026 Q1685.06 72.4545 1680.85 71.1582 L1680.85 62.9348 Q1684.49 64.9198 1688.38 65.892 Q1692.27 66.8642 1696.61 66.8642 Q1703.61 66.8642 1707.71 63.1779 Q1711.8 59.4916 1711.8 53.1722 Q1711.8 46.8528 1707.71 43.1664 Q1703.61 39.4801 1696.61 39.4801 Q1693.33 39.4801 1690.04 40.2093 Q1686.8 40.9384 1683.4 42.4778 L1683.4 12.096 Z" fill="#000000" fill-rule="nonzero" fill-opacity="1"></path><path clip-path="url(#clip930)" d="M1733.88 9.62495 L1740.36 9.62495 Q1746.43 19.1851 1749.43 28.3401 Q1752.47 37.4952 1752.47 46.5287 Q1752.47 55.6027 1749.43 64.7983 Q1746.43 73.9938 1740.36 83.5134 L1733.88 83.5134 Q1739.26 74.2369 1741.9 65.0818 Q1744.57 55.8863 1744.57 46.5287 Q1744.57 37.1711 1741.9 28.0566 Q1739.26 18.942 1733.88 9.62495 Z" fill="#000000" fill-rule="nonzero" fill-opacity="1"></path><path clip-path="url(#clip932)" d="M280.231 1836.38 L783.271 1604.91 L1286.31 1435.26 L1789.35 1315.8 L2292.39 1246.54 L2292.39 -894.622 L1789.35 -840.631 L1286.31 -730.779 L783.271 -523.722 L280.231 15.0242  Z" fill="#009af9" fill-rule="evenodd" fill-opacity="0.5"></path>
<polyline clip-path="url(#clip932)" style="stroke:#009af9; stroke-linecap:round; stroke-linejoin:round; stroke-width:8; stroke-opacity:1; fill:none" points="280.231,925.704 783.271,540.592 1286.31,352.242 1789.35,237.586 2292.39,175.959 "></polyline>
<path clip-path="url(#clip932)" d="M280.231 941.704 L268.919 937.016 L264.231 925.704 L268.919 914.392 L280.231 909.704 L291.543 914.392 L296.231 925.704 L291.543 937.016 Z" fill="#009af9" fill-rule="evenodd" fill-opacity="1" stroke="#000000" stroke-opacity="1" stroke-width="3.2"></path>
<path clip-path="url(#clip932)" d="M783.271 556.592 L771.959 551.904 L767.271 540.592 L771.959 529.28 L783.271 524.592 L794.583 529.28 L799.271 540.592 L794.583 551.904 Z" fill="#009af9" fill-rule="evenodd" fill-opacity="1" stroke="#000000" stroke-opacity="1" stroke-width="3.2"></path>
<path clip-path="url(#clip932)" d="M1286.31 368.242 L1275 363.554 L1270.31 352.242 L1275 340.93 L1286.31 336.242 L1297.62 340.93 L1302.31 352.242 L1297.62 363.554 Z" fill="#009af9" fill-rule="evenodd" fill-opacity="1" stroke="#000000" stroke-opacity="1" stroke-width="3.2"></path>
<path clip-path="url(#clip932)" d="M1789.35 253.586 L1778.04 248.898 L1773.35 237.586 L1778.04 226.274 L1789.35 221.586 L1800.66 226.274 L1805.35 237.586 L1800.66 248.898 Z" fill="#009af9" fill-rule="evenodd" fill-opacity="1" stroke="#000000" stroke-opacity="1" stroke-width="3.2"></path>
<path clip-path="url(#clip932)" d="M2292.39 191.959 L2281.08 187.271 L2276.39 175.959 L2281.08 164.647 L2292.39 159.959 L2303.7 164.647 L2308.39 175.959 L2303.7 187.271 Z" fill="#009af9" fill-rule="evenodd" fill-opacity="1" stroke="#000000" stroke-opacity="1" stroke-width="3.2"></path>
<path clip-path="url(#clip932)" d="M280.231 1849.29 L783.271 1852.81 L1286.31 1773.52 L1789.35 1662.41 L2292.39 1549.64 L2292.39 -589.933 L1789.35 -422.002 L1286.31 -186.715 L783.271 123.609 L280.231 595.395  Z" fill="#e26f46" fill-rule="evenodd" fill-opacity="0.5"></path>
<polyline clip-path="url(#clip932)" style="stroke:#e26f46; stroke-linecap:round; stroke-linejoin:round; stroke-width:8; stroke-opacity:1; fill:none" points="280.231,1222.34 783.271,988.209 1286.31,793.402 1789.35,620.202 2292.39,479.853 "></polyline>
<path clip-path="url(#clip932)" d="M280.231 1238.34 L268.919 1233.65 L264.231 1222.34 L268.919 1211.03 L280.231 1206.34 L291.543 1211.03 L296.231 1222.34 L291.543 1233.65 Z" fill="#e26f46" fill-rule="evenodd" fill-opacity="1" stroke="#000000" stroke-opacity="1" stroke-width="3.2"></path>
<path clip-path="url(#clip932)" d="M783.271 1004.21 L771.959 999.521 L767.271 988.209 L771.959 976.897 L783.271 972.209 L794.583 976.897 L799.271 988.209 L794.583 999.521 Z" fill="#e26f46" fill-rule="evenodd" fill-opacity="1" stroke="#000000" stroke-opacity="1" stroke-width="3.2"></path>
<path clip-path="url(#clip932)" d="M1286.31 809.402 L1275 804.714 L1270.31 793.402 L1275 782.09 L1286.31 777.402 L1297.62 782.09 L1302.31 793.402 L1297.62 804.714 Z" fill="#e26f46" fill-rule="evenodd" fill-opacity="1" stroke="#000000" stroke-opacity="1" stroke-width="3.2"></path>
<path clip-path="url(#clip932)" d="M1789.35 636.202 L1778.04 631.514 L1773.35 620.202 L1778.04 608.89 L1789.35 604.202 L1800.66 608.89 L1805.35 620.202 L1800.66 631.514 Z" fill="#e26f46" fill-rule="evenodd" fill-opacity="1" stroke="#000000" stroke-opacity="1" stroke-width="3.2"></path>
<path clip-path="url(#clip932)" d="M2292.39 495.853 L2281.08 491.165 L2276.39 479.853 L2281.08 468.541 L2292.39 463.853 L2303.7 468.541 L2308.39 479.853 L2303.7 491.165 Z" fill="#e26f46" fill-rule="evenodd" fill-opacity="1" stroke="#000000" stroke-opacity="1" stroke-width="3.2"></path>
<path clip-path="url(#clip930)" d="M290.963 322.316 L879.99 322.316 L879.99 166.796 L290.963 166.796  Z" fill="#ffffff" fill-rule="evenodd" fill-opacity="1"></path>
<polyline clip-path="url(#clip930)" style="stroke:#000000; stroke-linecap:round; stroke-linejoin:round; stroke-width:4; stroke-opacity:1; fill:none" points="290.963,322.316 879.99,322.316 879.99,166.796 290.963,166.796 290.963,322.316 "></polyline>
<polyline clip-path="url(#clip930)" style="stroke:#009af9; stroke-linecap:round; stroke-linejoin:round; stroke-width:8; stroke-opacity:1; fill:none" points="314.661,218.636 456.854,218.636 "></polyline>
<path clip-path="url(#clip930)" d="M385.758 240.579 L370.244 234.15 L363.814 218.636 L370.244 203.122 L385.758 196.692 L401.272 203.122 L407.701 218.636 L401.272 234.15 Z" fill="#009af9" fill-rule="evenodd" fill-opacity="1" stroke="#000000" stroke-opacity="1" stroke-width="4.55111"></path>
<path clip-path="url(#clip930)" d="M480.553 201.356 L487.52 201.356 L496.34 224.874 L505.205 201.356 L512.173 201.356 L512.173 235.916 L507.613 235.916 L507.613 205.569 L498.701 229.272 L494.002 229.272 L485.09 205.569 L485.09 235.916 L480.553 235.916 L480.553 201.356 Z" fill="#000000" fill-rule="nonzero" fill-opacity="1"></path><path clip-path="url(#clip930)" d="M543.446 221.888 L543.446 223.971 L523.863 223.971 Q524.141 228.369 526.502 230.684 Q528.886 232.976 533.122 232.976 Q535.576 232.976 537.867 232.374 Q540.182 231.772 542.451 230.569 L542.451 234.596 Q540.159 235.568 537.752 236.078 Q535.344 236.587 532.867 236.587 Q526.664 236.587 523.029 232.976 Q519.418 229.365 519.418 223.207 Q519.418 216.842 522.844 213.115 Q526.293 209.365 532.127 209.365 Q537.358 209.365 540.39 212.745 Q543.446 216.101 543.446 221.888 M539.187 220.638 Q539.14 217.143 537.219 215.059 Q535.321 212.976 532.173 212.976 Q528.608 212.976 526.455 214.99 Q524.326 217.004 524.002 220.661 L539.187 220.638 Z" fill="#000000" fill-rule="nonzero" fill-opacity="1"></path><path clip-path="url(#clip930)" d="M554.65 202.629 L554.65 209.99 L563.423 209.99 L563.423 213.3 L554.65 213.3 L554.65 227.374 Q554.65 230.545 555.506 231.448 Q556.386 232.351 559.048 232.351 L563.423 232.351 L563.423 235.916 L559.048 235.916 Q554.117 235.916 552.242 234.087 Q550.367 232.235 550.367 227.374 L550.367 213.3 L547.242 213.3 L547.242 209.99 L550.367 209.99 L550.367 202.629 L554.65 202.629 Z" fill="#000000" fill-rule="nonzero" fill-opacity="1"></path><path clip-path="url(#clip930)" d="M590.575 220.268 L590.575 235.916 L586.316 235.916 L586.316 220.407 Q586.316 216.726 584.881 214.897 Q583.446 213.069 580.575 213.069 Q577.126 213.069 575.136 215.268 Q573.145 217.467 573.145 221.263 L573.145 235.916 L568.862 235.916 L568.862 199.897 L573.145 199.897 L573.145 214.018 Q574.673 211.68 576.733 210.522 Q578.816 209.365 581.524 209.365 Q585.992 209.365 588.284 212.143 Q590.575 214.897 590.575 220.268 Z" fill="#000000" fill-rule="nonzero" fill-opacity="1"></path><path clip-path="url(#clip930)" d="M609.117 212.976 Q605.691 212.976 603.7 215.661 Q601.71 218.323 601.71 222.976 Q601.71 227.629 603.677 230.314 Q605.668 232.976 609.117 232.976 Q612.52 232.976 614.51 230.291 Q616.501 227.606 616.501 222.976 Q616.501 218.37 614.51 215.684 Q612.52 212.976 609.117 212.976 M609.117 209.365 Q614.672 209.365 617.844 212.976 Q621.015 216.587 621.015 222.976 Q621.015 229.342 617.844 232.976 Q614.672 236.587 609.117 236.587 Q603.538 236.587 600.367 232.976 Q597.219 229.342 597.219 222.976 Q597.219 216.587 600.367 212.976 Q603.538 209.365 609.117 209.365 Z" fill="#000000" fill-rule="nonzero" fill-opacity="1"></path><path clip-path="url(#clip930)" d="M645.135 213.925 L645.135 199.897 L649.394 199.897 L649.394 235.916 L645.135 235.916 L645.135 232.027 Q643.793 234.342 641.732 235.476 Q639.695 236.587 636.825 236.587 Q632.126 236.587 629.163 232.837 Q626.223 229.087 626.223 222.976 Q626.223 216.865 629.163 213.115 Q632.126 209.365 636.825 209.365 Q639.695 209.365 641.732 210.499 Q643.793 211.61 645.135 213.925 M630.621 222.976 Q630.621 227.675 632.543 230.36 Q634.487 233.022 637.867 233.022 Q641.246 233.022 643.191 230.36 Q645.135 227.675 645.135 222.976 Q645.135 218.277 643.191 215.615 Q641.246 212.93 637.867 212.93 Q634.487 212.93 632.543 215.615 Q630.621 218.277 630.621 222.976 Z" fill="#000000" fill-rule="nonzero" fill-opacity="1"></path><path clip-path="url(#clip930)" d="M677.357 232.027 L677.357 245.777 L673.075 245.777 L673.075 209.99 L677.357 209.99 L677.357 213.925 Q678.7 211.61 680.737 210.499 Q682.797 209.365 685.644 209.365 Q690.366 209.365 693.306 213.115 Q696.269 216.865 696.269 222.976 Q696.269 229.087 693.306 232.837 Q690.366 236.587 685.644 236.587 Q682.797 236.587 680.737 235.476 Q678.7 234.342 677.357 232.027 M691.848 222.976 Q691.848 218.277 689.904 215.615 Q687.982 212.93 684.603 212.93 Q681.223 212.93 679.279 215.615 Q677.357 218.277 677.357 222.976 Q677.357 227.675 679.279 230.36 Q681.223 233.022 684.603 233.022 Q687.982 233.022 689.904 230.36 Q691.848 227.675 691.848 222.976 Z" fill="#000000" fill-rule="nonzero" fill-opacity="1"></path><path clip-path="url(#clip930)" d="M725.505 221.888 L725.505 223.971 L705.922 223.971 Q706.2 228.369 708.561 230.684 Q710.945 232.976 715.181 232.976 Q717.635 232.976 719.926 232.374 Q722.241 231.772 724.51 230.569 L724.51 234.596 Q722.218 235.568 719.811 236.078 Q717.403 236.587 714.927 236.587 Q708.723 236.587 705.089 232.976 Q701.478 229.365 701.478 223.207 Q701.478 216.842 704.903 213.115 Q708.352 209.365 714.186 209.365 Q719.417 209.365 722.45 212.745 Q725.505 216.101 725.505 221.888 M721.246 220.638 Q721.2 217.143 719.278 215.059 Q717.38 212.976 714.232 212.976 Q710.667 212.976 708.515 214.99 Q706.385 217.004 706.061 220.661 L721.246 220.638 Z" fill="#000000" fill-rule="nonzero" fill-opacity="1"></path><path clip-path="url(#clip930)" d="M744.278 222.883 Q739.116 222.883 737.125 224.064 Q735.135 225.244 735.135 228.092 Q735.135 230.36 736.616 231.703 Q738.121 233.022 740.69 233.022 Q744.232 233.022 746.362 230.522 Q748.514 227.999 748.514 223.832 L748.514 222.883 L744.278 222.883 M752.774 221.124 L752.774 235.916 L748.514 235.916 L748.514 231.981 Q747.056 234.342 744.88 235.476 Q742.704 236.587 739.556 236.587 Q735.575 236.587 733.213 234.365 Q730.876 232.119 730.876 228.369 Q730.876 223.994 733.792 221.772 Q736.732 219.55 742.542 219.55 L748.514 219.55 L748.514 219.133 Q748.514 216.194 746.57 214.596 Q744.649 212.976 741.153 212.976 Q738.931 212.976 736.825 213.508 Q734.718 214.041 732.774 215.106 L732.774 211.17 Q735.112 210.268 737.311 209.828 Q739.51 209.365 741.593 209.365 Q747.218 209.365 749.996 212.282 Q752.774 215.198 752.774 221.124 Z" fill="#000000" fill-rule="nonzero" fill-opacity="1"></path><path clip-path="url(#clip930)" d="M776.57 213.971 Q775.852 213.555 774.996 213.37 Q774.162 213.161 773.144 213.161 Q769.533 213.161 767.588 215.522 Q765.667 217.86 765.667 222.258 L765.667 235.916 L761.385 235.916 L761.385 209.99 L765.667 209.99 L765.667 214.018 Q767.01 211.657 769.162 210.522 Q771.315 209.365 774.394 209.365 Q774.834 209.365 775.366 209.434 Q775.898 209.481 776.547 209.596 L776.57 213.971 Z" fill="#000000" fill-rule="nonzero" fill-opacity="1"></path><path clip-path="url(#clip930)" d="M797.565 210.754 L797.565 214.782 Q795.759 213.856 793.815 213.393 Q791.871 212.93 789.787 212.93 Q786.616 212.93 785.019 213.902 Q783.445 214.874 783.445 216.819 Q783.445 218.3 784.579 219.157 Q785.713 219.99 789.139 220.754 L790.597 221.078 Q795.134 222.05 797.033 223.832 Q798.954 225.592 798.954 228.763 Q798.954 232.374 796.083 234.481 Q793.236 236.587 788.236 236.587 Q786.153 236.587 783.884 236.17 Q781.639 235.777 779.139 234.967 L779.139 230.569 Q781.5 231.795 783.792 232.42 Q786.084 233.022 788.329 233.022 Q791.338 233.022 792.959 232.004 Q794.579 230.962 794.579 229.087 Q794.579 227.351 793.398 226.425 Q792.241 225.499 788.283 224.643 L786.801 224.295 Q782.843 223.462 781.084 221.749 Q779.324 220.013 779.324 217.004 Q779.324 213.346 781.917 211.356 Q784.509 209.365 789.278 209.365 Q791.639 209.365 793.722 209.712 Q795.806 210.059 797.565 210.754 Z" fill="#000000" fill-rule="nonzero" fill-opacity="1"></path><path clip-path="url(#clip930)" d="M815.782 212.976 Q812.357 212.976 810.366 215.661 Q808.375 218.323 808.375 222.976 Q808.375 227.629 810.343 230.314 Q812.333 232.976 815.782 232.976 Q819.185 232.976 821.176 230.291 Q823.167 227.606 823.167 222.976 Q823.167 218.37 821.176 215.684 Q819.185 212.976 815.782 212.976 M815.782 209.365 Q821.338 209.365 824.509 212.976 Q827.681 216.587 827.681 222.976 Q827.681 229.342 824.509 232.976 Q821.338 236.587 815.782 236.587 Q810.204 236.587 807.033 232.976 Q803.884 229.342 803.884 222.976 Q803.884 216.587 807.033 212.976 Q810.204 209.365 815.782 209.365 Z" fill="#000000" fill-rule="nonzero" fill-opacity="1"></path><path clip-path="url(#clip930)" d="M856.292 220.268 L856.292 235.916 L852.032 235.916 L852.032 220.407 Q852.032 216.726 850.597 214.897 Q849.162 213.069 846.292 213.069 Q842.843 213.069 840.852 215.268 Q838.861 217.467 838.861 221.263 L838.861 235.916 L834.579 235.916 L834.579 209.99 L838.861 209.99 L838.861 214.018 Q840.389 211.68 842.449 210.522 Q844.532 209.365 847.241 209.365 Q851.708 209.365 854 212.143 Q856.292 214.897 856.292 220.268 Z" fill="#000000" fill-rule="nonzero" fill-opacity="1"></path><polyline clip-path="url(#clip930)" style="stroke:#e26f46; stroke-linecap:round; stroke-linejoin:round; stroke-width:8; stroke-opacity:1; fill:none" points="314.661,270.476 456.854,270.476 "></polyline>
<path clip-path="url(#clip930)" d="M385.758 292.419 L370.244 285.99 L363.814 270.476 L370.244 254.962 L385.758 248.532 L401.272 254.962 L407.701 270.476 L401.272 285.99 Z" fill="#e26f46" fill-rule="evenodd" fill-opacity="1" stroke="#000000" stroke-opacity="1" stroke-width="4.55111"></path>
<path clip-path="url(#clip930)" d="M480.553 253.196 L487.52 253.196 L496.34 276.714 L505.205 253.196 L512.173 253.196 L512.173 287.756 L507.613 287.756 L507.613 257.409 L498.701 281.112 L494.002 281.112 L485.09 257.409 L485.09 287.756 L480.553 287.756 L480.553 253.196 Z" fill="#000000" fill-rule="nonzero" fill-opacity="1"></path><path clip-path="url(#clip930)" d="M543.446 273.728 L543.446 275.811 L523.863 275.811 Q524.141 280.209 526.502 282.524 Q528.886 284.816 533.122 284.816 Q535.576 284.816 537.867 284.214 Q540.182 283.612 542.451 282.409 L542.451 286.436 Q540.159 287.408 537.752 287.918 Q535.344 288.427 532.867 288.427 Q526.664 288.427 523.029 284.816 Q519.418 281.205 519.418 275.047 Q519.418 268.682 522.844 264.955 Q526.293 261.205 532.127 261.205 Q537.358 261.205 540.39 264.585 Q543.446 267.941 543.446 273.728 M539.187 272.478 Q539.14 268.983 537.219 266.899 Q535.321 264.816 532.173 264.816 Q528.608 264.816 526.455 266.83 Q524.326 268.844 524.002 272.501 L539.187 272.478 Z" fill="#000000" fill-rule="nonzero" fill-opacity="1"></path><path clip-path="url(#clip930)" d="M554.65 254.469 L554.65 261.83 L563.423 261.83 L563.423 265.14 L554.65 265.14 L554.65 279.214 Q554.65 282.385 555.506 283.288 Q556.386 284.191 559.048 284.191 L563.423 284.191 L563.423 287.756 L559.048 287.756 Q554.117 287.756 552.242 285.927 Q550.367 284.075 550.367 279.214 L550.367 265.14 L547.242 265.14 L547.242 261.83 L550.367 261.83 L550.367 254.469 L554.65 254.469 Z" fill="#000000" fill-rule="nonzero" fill-opacity="1"></path><path clip-path="url(#clip930)" d="M590.575 272.108 L590.575 287.756 L586.316 287.756 L586.316 272.247 Q586.316 268.566 584.881 266.737 Q583.446 264.909 580.575 264.909 Q577.126 264.909 575.136 267.108 Q573.145 269.307 573.145 273.103 L573.145 287.756 L568.862 287.756 L568.862 251.737 L573.145 251.737 L573.145 265.858 Q574.673 263.52 576.733 262.362 Q578.816 261.205 581.524 261.205 Q585.992 261.205 588.284 263.983 Q590.575 266.737 590.575 272.108 Z" fill="#000000" fill-rule="nonzero" fill-opacity="1"></path><path clip-path="url(#clip930)" d="M609.117 264.816 Q605.691 264.816 603.7 267.501 Q601.71 270.163 601.71 274.816 Q601.71 279.469 603.677 282.154 Q605.668 284.816 609.117 284.816 Q612.52 284.816 614.51 282.131 Q616.501 279.446 616.501 274.816 Q616.501 270.21 614.51 267.524 Q612.52 264.816 609.117 264.816 M609.117 261.205 Q614.672 261.205 617.844 264.816 Q621.015 268.427 621.015 274.816 Q621.015 281.182 617.844 284.816 Q614.672 288.427 609.117 288.427 Q603.538 288.427 600.367 284.816 Q597.219 281.182 597.219 274.816 Q597.219 268.427 600.367 264.816 Q603.538 261.205 609.117 261.205 Z" fill="#000000" fill-rule="nonzero" fill-opacity="1"></path><path clip-path="url(#clip930)" d="M645.135 265.765 L645.135 251.737 L649.394 251.737 L649.394 287.756 L645.135 287.756 L645.135 283.867 Q643.793 286.182 641.732 287.316 Q639.695 288.427 636.825 288.427 Q632.126 288.427 629.163 284.677 Q626.223 280.927 626.223 274.816 Q626.223 268.705 629.163 264.955 Q632.126 261.205 636.825 261.205 Q639.695 261.205 641.732 262.339 Q643.793 263.45 645.135 265.765 M630.621 274.816 Q630.621 279.515 632.543 282.2 Q634.487 284.862 637.867 284.862 Q641.246 284.862 643.191 282.2 Q645.135 279.515 645.135 274.816 Q645.135 270.117 643.191 267.455 Q641.246 264.77 637.867 264.77 Q634.487 264.77 632.543 267.455 Q630.621 270.117 630.621 274.816 Z" fill="#000000" fill-rule="nonzero" fill-opacity="1"></path><path clip-path="url(#clip930)" d="M690.297 274.492 Q690.297 269.862 688.376 267.316 Q686.478 264.77 683.029 264.77 Q679.603 264.77 677.681 267.316 Q675.783 269.862 675.783 274.492 Q675.783 279.098 677.681 281.645 Q679.603 284.191 683.029 284.191 Q686.478 284.191 688.376 281.645 Q690.297 279.098 690.297 274.492 M694.556 284.538 Q694.556 291.158 691.616 294.376 Q688.677 297.617 682.612 297.617 Q680.367 297.617 678.376 297.27 Q676.385 296.945 674.51 296.251 L674.51 292.108 Q676.385 293.126 678.214 293.612 Q680.042 294.098 681.941 294.098 Q686.13 294.098 688.214 291.899 Q690.297 289.723 690.297 285.302 L690.297 283.196 Q688.978 285.487 686.917 286.621 Q684.857 287.756 681.987 287.756 Q677.218 287.756 674.302 284.121 Q671.385 280.487 671.385 274.492 Q671.385 268.473 674.302 264.839 Q677.218 261.205 681.987 261.205 Q684.857 261.205 686.917 262.339 Q688.978 263.473 690.297 265.765 L690.297 261.83 L694.556 261.83 L694.556 284.538 Z" fill="#000000" fill-rule="nonzero" fill-opacity="1"></path><path clip-path="url(#clip930)" d="M723.514 266.807 Q725.112 263.936 727.334 262.571 Q729.556 261.205 732.565 261.205 Q736.616 261.205 738.815 264.052 Q741.014 266.876 741.014 272.108 L741.014 287.756 L736.732 287.756 L736.732 272.247 Q736.732 268.52 735.413 266.714 Q734.093 264.909 731.385 264.909 Q728.075 264.909 726.153 267.108 Q724.232 269.307 724.232 273.103 L724.232 287.756 L719.95 287.756 L719.95 272.247 Q719.95 268.497 718.63 266.714 Q717.311 264.909 714.556 264.909 Q711.292 264.909 709.371 267.131 Q707.45 269.33 707.45 273.103 L707.45 287.756 L703.167 287.756 L703.167 261.83 L707.45 261.83 L707.45 265.858 Q708.908 263.473 710.945 262.339 Q712.982 261.205 715.783 261.205 Q718.607 261.205 720.575 262.64 Q722.565 264.075 723.514 266.807 Z" fill="#000000" fill-rule="nonzero" fill-opacity="1"></path><path clip-path="url(#clip930)" d="M749.51 251.737 L753.769 251.737 L753.769 287.756 L749.51 287.756 L749.51 251.737 Z" fill="#000000" fill-rule="nonzero" fill-opacity="1"></path><path clip-path="url(#clip930)" d="M774.463 274.723 Q769.301 274.723 767.311 275.904 Q765.32 277.084 765.32 279.932 Q765.32 282.2 766.801 283.543 Q768.306 284.862 770.875 284.862 Q774.417 284.862 776.547 282.362 Q778.699 279.839 778.699 275.672 L778.699 274.723 L774.463 274.723 M782.959 272.964 L782.959 287.756 L778.699 287.756 L778.699 283.821 Q777.241 286.182 775.065 287.316 Q772.889 288.427 769.741 288.427 Q765.76 288.427 763.398 286.205 Q761.061 283.959 761.061 280.209 Q761.061 275.834 763.977 273.612 Q766.917 271.39 772.727 271.39 L778.699 271.39 L778.699 270.973 Q778.699 268.034 776.755 266.436 Q774.834 264.816 771.338 264.816 Q769.116 264.816 767.01 265.348 Q764.903 265.881 762.959 266.946 L762.959 263.01 Q765.297 262.108 767.496 261.668 Q769.695 261.205 771.778 261.205 Q777.403 261.205 780.181 264.122 Q782.959 267.038 782.959 272.964 Z" fill="#000000" fill-rule="nonzero" fill-opacity="1"></path></svg>