<svg xmlns="http://www.w3.org/2000/svg" xmlns:xlink="http://www.w3.org/1999/xlink" width="600" height="400" viewBox="0 0 2400 1600">
<defs>
  <clipPath id="clip810">
    <rect x="0" y="0" width="2400" height="1600"></rect>
  </clipPath>
</defs>
<path clip-path="url(#clip810)" d="M0 1600 L2400 1600 L2400 0 L0 0  Z" fill="#ffffff" fill-rule="evenodd" fill-opacity="1"></path>
<defs>
  <clipPath id="clip811">
    <rect x="480" y="0" width="1681" height="1600"></rect>
  </clipPath>
</defs>
<path clip-path="url(#clip810)" d="M249.542 1423.18 L2352.76 1423.18 L2352.76 123.472 L249.542 123.472  Z" fill="#ffffff" fill-rule="evenodd" fill-opacity="1"></path>
<defs>
  <clipPath id="clip812">
    <rect x="249" y="123" width="2104" height="1301"></rect>
  </clipPath>
</defs>
<polyline clip-path="url(#clip812)" style="stroke:#000000; stroke-linecap:round; stroke-linejoin:round; stroke-width:2; stroke-opacity:0.1; fill:none" points="309.067,1423.18 309.067,123.472 "></polyline>
<polyline clip-path="url(#clip812)" style="stroke:#000000; stroke-linecap:round; stroke-linejoin:round; stroke-width:2; stroke-opacity:0.1; fill:none" points="805.108,1423.18 805.108,123.472 "></polyline>
<polyline clip-path="url(#clip812)" style="stroke:#000000; stroke-linecap:round; stroke-linejoin:round; stroke-width:2; stroke-opacity:0.1; fill:none" points="1301.15,1423.18 1301.15,123.472 "></polyline>
<polyline clip-path="url(#clip812)" style="stroke:#000000; stroke-linecap:round; stroke-linejoin:round; stroke-width:2; stroke-opacity:0.1; fill:none" points="1797.19,1423.18 1797.19,123.472 "></polyline>
<polyline clip-path="url(#clip812)" style="stroke:#000000; stroke-linecap:round; stroke-linejoin:round; stroke-width:2; stroke-opacity:0.1; fill:none" points="2293.23,1423.18 2293.23,123.472 "></polyline>
<polyline clip-path="url(#clip812)" style="stroke:#000000; stroke-linecap:round; stroke-linejoin:round; stroke-width:2; stroke-opacity:0.1; fill:none" points="249.542,1423.18 2352.76,1423.18 "></polyline>
<polyline clip-path="url(#clip812)" style="stroke:#000000; stroke-linecap:round; stroke-linejoin:round; stroke-width:2; stroke-opacity:0.1; fill:none" points="249.542,1163.24 2352.76,1163.24 "></polyline>
<polyline clip-path="url(#clip812)" style="stroke:#000000; stroke-linecap:round; stroke-linejoin:round; stroke-width:2; stroke-opacity:0.1; fill:none" points="249.542,903.297 2352.76,903.297 "></polyline>
<polyline clip-path="url(#clip812)" style="stroke:#000000; stroke-linecap:round; stroke-linejoin:round; stroke-width:2; stroke-opacity:0.1; fill:none" points="249.542,643.355 2352.76,643.355 "></polyline>
<polyline clip-path="url(#clip812)" style="stroke:#000000; stroke-linecap:round; stroke-linejoin:round; stroke-width:2; stroke-opacity:0.1; fill:none" points="249.542,383.414 2352.76,383.414 "></polyline>
<polyline clip-path="url(#clip810)" style="stroke:#000000; stroke-linecap:round; stroke-linejoin:round; stroke-width:4; stroke-opacity:1; fill:none" points="249.542,1423.18 2352.76,1423.18 "></polyline>
<polyline clip-path="url(#clip810)" style="stroke:#000000; stroke-linecap:round; stroke-linejoin:round; stroke-width:4; stroke-opacity:1; fill:none" points="309.067,1423.18 309.067,1404.28 "></polyline>
<polyline clip-path="url(#clip810)" style="stroke:#000000; stroke-linecap:round; stroke-linejoin:round; stroke-width:4; stroke-opacity:1; fill:none" points="805.108,1423.18 805.108,1404.28 "></polyline>
<polyline clip-path="url(#clip810)" style="stroke:#000000; stroke-linecap:round; stroke-linejoin:round; stroke-width:4; stroke-opacity:1; fill:none" points="1301.15,1423.18 1301.15,1404.28 "></polyline>
<polyline clip-path="url(#clip810)" style="stroke:#000000; stroke-linecap:round; stroke-linejoin:round; stroke-width:4; stroke-opacity:1; fill:none" points="1797.19,1423.18 1797.19,1404.28 "></polyline>
<polyline clip-path="url(#clip810)" style="stroke:#000000; stroke-linecap:round; stroke-linejoin:round; stroke-width:4; stroke-opacity:1; fill:none" points="2293.23,1423.18 2293.23,1404.28 "></polyline>
<path clip-path="url(#clip810)" d="M271.868 1454.1 Q268.257 1454.1 266.428 1457.66 Q264.623 1461.2 264.623 1468.33 Q264.623 1475.44 266.428 1479.01 Q268.257 1482.55 271.868 1482.55 Q275.502 1482.55 277.308 1479.01 Q279.137 1475.44 279.137 1468.33 Q279.137 1461.2 277.308 1457.66 Q275.502 1454.1 271.868 1454.1 M271.868 1450.39 Q277.678 1450.39 280.734 1455 Q283.812 1459.58 283.812 1468.33 Q283.812 1477.06 280.734 1481.67 Q277.678 1486.25 271.868 1486.25 Q266.058 1486.25 262.979 1481.67 Q259.924 1477.06 259.924 1468.33 Q259.924 1459.58 262.979 1455 Q266.058 1450.39 271.868 1450.39 Z" fill="#000000" fill-rule="nonzero" fill-opacity="1"></path><path clip-path="url(#clip810)" d="M292.03 1479.7 L296.914 1479.7 L296.914 1485.58 L292.03 1485.58 L292.03 1479.7 Z" fill="#000000" fill-rule="nonzero" fill-opacity="1"></path><path clip-path="url(#clip810)" d="M317.099 1454.1 Q313.488 1454.1 311.66 1457.66 Q309.854 1461.2 309.854 1468.33 Q309.854 1475.44 311.66 1479.01 Q313.488 1482.55 317.099 1482.55 Q320.734 1482.55 322.539 1479.01 Q324.368 1475.44 324.368 1468.33 Q324.368 1461.2 322.539 1457.66 Q320.734 1454.1 317.099 1454.1 M317.099 1450.39 Q322.909 1450.39 325.965 1455 Q329.044 1459.58 329.044 1468.33 Q329.044 1477.06 325.965 1481.67 Q322.909 1486.25 317.099 1486.25 Q311.289 1486.25 308.21 1481.67 Q305.155 1477.06 305.155 1468.33 Q305.155 1459.58 308.21 1455 Q311.289 1450.39 317.099 1450.39 Z" fill="#000000" fill-rule="nonzero" fill-opacity="1"></path><path clip-path="url(#clip810)" d="M337.308 1451.02 L355.664 1451.02 L355.664 1454.96 L341.59 1454.96 L341.59 1463.43 Q342.608 1463.08 343.627 1462.92 Q344.645 1462.73 345.664 1462.73 Q351.451 1462.73 354.831 1465.9 Q358.21 1469.08 358.21 1474.49 Q358.21 1480.07 354.738 1483.17 Q351.266 1486.25 344.946 1486.25 Q342.77 1486.25 340.502 1485.88 Q338.257 1485.51 335.849 1484.77 L335.849 1480.07 Q337.933 1481.2 340.155 1481.76 Q342.377 1482.32 344.854 1482.32 Q348.858 1482.32 351.196 1480.21 Q353.534 1478.1 353.534 1474.49 Q353.534 1470.88 351.196 1468.77 Q348.858 1466.67 344.854 1466.67 Q342.979 1466.67 341.104 1467.08 Q339.252 1467.5 337.308 1468.38 L337.308 1451.02 Z" fill="#000000" fill-rule="nonzero" fill-opacity="1"></path><path clip-path="url(#clip810)" d="M767.411 1454.1 Q763.8 1454.1 761.972 1457.66 Q760.166 1461.2 760.166 1468.33 Q760.166 1475.44 761.972 1479.01 Q763.8 1482.55 767.411 1482.55 Q771.046 1482.55 772.851 1479.01 Q774.68 1475.44 774.68 1468.33 Q774.68 1461.2 772.851 1457.66 Q771.046 1454.1 767.411 1454.1 M767.411 1450.39 Q773.222 1450.39 776.277 1455 Q779.356 1459.58 779.356 1468.33 Q779.356 1477.06 776.277 1481.67 Q773.222 1486.25 767.411 1486.25 Q761.601 1486.25 758.523 1481.67 Q755.467 1477.06 755.467 1468.33 Q755.467 1459.58 758.523 1455 Q761.601 1450.39 767.411 1450.39 Z" fill="#000000" fill-rule="nonzero" fill-opacity="1"></path><path clip-path="url(#clip810)" d="M787.573 1479.7 L792.458 1479.7 L792.458 1485.58 L787.573 1485.58 L787.573 1479.7 Z" fill="#000000" fill-rule="nonzero" fill-opacity="1"></path><path clip-path="url(#clip810)" d="M803.453 1481.64 L811.092 1481.64 L811.092 1455.28 L802.782 1456.95 L802.782 1452.69 L811.045 1451.02 L815.721 1451.02 L815.721 1481.64 L823.36 1481.64 L823.36 1485.58 L803.453 1485.58 L803.453 1481.64 Z" fill="#000000" fill-rule="nonzero" fill-opacity="1"></path><path clip-path="url(#clip810)" d="M842.805 1454.1 Q839.193 1454.1 837.365 1457.66 Q835.559 1461.2 835.559 1468.33 Q835.559 1475.44 837.365 1479.01 Q839.193 1482.55 842.805 1482.55 Q846.439 1482.55 848.244 1479.01 Q850.073 1475.44 850.073 1468.33 Q850.073 1461.2 848.244 1457.66 Q846.439 1454.1 842.805 1454.1 M842.805 1450.39 Q848.615 1450.39 851.67 1455 Q854.749 1459.58 854.749 1468.33 Q854.749 1477.06 851.67 1481.67 Q848.615 1486.25 842.805 1486.25 Q836.994 1486.25 833.916 1481.67 Q830.86 1477.06 830.86 1468.33 Q830.86 1459.58 833.916 1455 Q836.994 1450.39 842.805 1450.39 Z" fill="#000000" fill-rule="nonzero" fill-opacity="1"></path><path clip-path="url(#clip810)" d="M1263.95 1454.1 Q1260.34 1454.1 1258.51 1457.66 Q1256.7 1461.2 1256.7 1468.33 Q1256.7 1475.44 1258.51 1479.01 Q1260.34 1482.55 1263.95 1482.55 Q1267.58 1482.55 1269.39 1479.01 Q1271.22 1475.44 1271.22 1468.33 Q1271.22 1461.2 1269.39 1457.66 Q1267.58 1454.1 1263.95 1454.1 M1263.95 1450.39 Q1269.76 1450.39 1272.82 1455 Q1275.89 1459.58 1275.89 1468.33 Q1275.89 1477.06 1272.82 1481.67 Q1269.76 1486.25 1263.95 1486.25 Q1258.14 1486.25 1255.06 1481.67 Q1252.01 1477.06 1252.01 1468.33 Q1252.01 1459.58 1255.06 1455 Q1258.14 1450.39 1263.95 1450.39 Z" fill="#000000" fill-rule="nonzero" fill-opacity="1"></path><path clip-path="url(#clip810)" d="M1284.11 1479.7 L1289 1479.7 L1289 1485.58 L1284.11 1485.58 L1284.11 1479.7 Z" fill="#000000" fill-rule="nonzero" fill-opacity="1"></path><path clip-path="url(#clip810)" d="M1299.99 1481.64 L1307.63 1481.64 L1307.63 1455.28 L1299.32 1456.95 L1299.32 1452.69 L1307.58 1451.02 L1312.26 1451.02 L1312.26 1481.64 L1319.9 1481.64 L1319.9 1485.58 L1299.99 1485.58 L1299.99 1481.64 Z" fill="#000000" fill-rule="nonzero" fill-opacity="1"></path><path clip-path="url(#clip810)" d="M1329.39 1451.02 L1347.75 1451.02 L1347.75 1454.96 L1333.67 1454.96 L1333.67 1463.43 Q1334.69 1463.08 1335.71 1462.92 Q1336.73 1462.73 1337.75 1462.73 Q1343.53 1462.73 1346.91 1465.9 Q1350.29 1469.08 1350.29 1474.49 Q1350.29 1480.07 1346.82 1483.17 Q1343.35 1486.25 1337.03 1486.25 Q1334.85 1486.25 1332.58 1485.88 Q1330.34 1485.51 1327.93 1484.77 L1327.93 1480.07 Q1330.01 1481.2 1332.24 1481.76 Q1334.46 1482.32 1336.94 1482.32 Q1340.94 1482.32 1343.28 1480.21 Q1345.62 1478.1 1345.62 1474.49 Q1345.62 1470.88 1343.28 1468.77 Q1340.94 1466.67 1336.94 1466.67 Q1335.06 1466.67 1333.19 1467.08 Q1331.33 1467.5 1329.39 1468.38 L1329.39 1451.02 Z" fill="#000000" fill-rule="nonzero" fill-opacity="1"></path><path clip-path="url(#clip810)" d="M1759.49 1454.1 Q1755.88 1454.1 1754.05 1457.66 Q1752.25 1461.2 1752.25 1468.33 Q1752.25 1475.44 1754.05 1479.01 Q1755.88 1482.55 1759.49 1482.55 Q1763.13 1482.55 1764.93 1479.01 Q1766.76 1475.44 1766.76 1468.33 Q1766.76 1461.2 1764.93 1457.66 Q1763.13 1454.1 1759.49 1454.1 M1759.49 1450.39 Q1765.3 1450.39 1768.36 1455 Q1771.44 1459.58 1771.44 1468.33 Q1771.44 1477.06 1768.36 1481.67 Q1765.3 1486.25 1759.49 1486.25 Q1753.68 1486.25 1750.6 1481.67 Q1747.55 1477.06 1747.55 1468.33 Q1747.55 1459.58 1750.6 1455 Q1753.68 1450.39 1759.49 1450.39 Z" fill="#000000" fill-rule="nonzero" fill-opacity="1"></path><path clip-path="url(#clip810)" d="M1779.66 1479.7 L1784.54 1479.7 L1784.54 1485.58 L1779.66 1485.58 L1779.66 1479.7 Z" fill="#000000" fill-rule="nonzero" fill-opacity="1"></path><path clip-path="url(#clip810)" d="M1798.75 1481.64 L1815.07 1481.64 L1815.07 1485.58 L1793.13 1485.58 L1793.13 1481.64 Q1795.79 1478.89 1800.37 1474.26 Q1804.98 1469.61 1806.16 1468.27 Q1808.41 1465.74 1809.28 1464.01 Q1810.19 1462.25 1810.19 1460.56 Q1810.19 1457.8 1808.24 1456.07 Q1806.32 1454.33 1803.22 1454.33 Q1801.02 1454.33 1798.57 1455.09 Q1796.14 1455.86 1793.36 1457.41 L1793.36 1452.69 Q1796.18 1451.55 1798.64 1450.97 Q1801.09 1450.39 1803.13 1450.39 Q1808.5 1450.39 1811.69 1453.08 Q1814.89 1455.77 1814.89 1460.26 Q1814.89 1462.39 1814.08 1464.31 Q1813.29 1466.2 1811.18 1468.8 Q1810.6 1469.47 1807.5 1472.69 Q1804.4 1475.88 1798.75 1481.64 Z" fill="#000000" fill-rule="nonzero" fill-opacity="1"></path><path clip-path="url(#clip810)" d="M1834.89 1454.1 Q1831.28 1454.1 1829.45 1457.66 Q1827.64 1461.2 1827.64 1468.33 Q1827.64 1475.44 1829.45 1479.01 Q1831.28 1482.55 1834.89 1482.55 Q1838.52 1482.55 1840.33 1479.01 Q1842.16 1475.44 1842.16 1468.33 Q1842.16 1461.2 1840.33 1457.66 Q1838.52 1454.1 1834.89 1454.1 M1834.89 1450.39 Q1840.7 1450.39 1843.75 1455 Q1846.83 1459.58 1846.83 1468.33 Q1846.83 1477.06 1843.75 1481.67 Q1840.7 1486.25 1834.89 1486.25 Q1829.08 1486.25 1826 1481.67 Q1822.94 1477.06 1822.94 1468.33 Q1822.94 1459.58 1826 1455 Q1829.08 1450.39 1834.89 1450.39 Z" fill="#000000" fill-rule="nonzero" fill-opacity="1"></path><path clip-path="url(#clip810)" d="M2256.03 1454.1 Q2252.42 1454.1 2250.59 1457.66 Q2248.79 1461.2 2248.79 1468.33 Q2248.79 1475.44 2250.59 1479.01 Q2252.42 1482.55 2256.03 1482.55 Q2259.67 1482.55 2261.47 1479.01 Q2263.3 1475.44 2263.3 1468.33 Q2263.3 1461.2 2261.47 1457.66 Q2259.67 1454.1 2256.03 1454.1 M2256.03 1450.39 Q2261.84 1450.39 2264.9 1455 Q2267.98 1459.58 2267.98 1468.33 Q2267.98 1477.06 2264.9 1481.67 Q2261.84 1486.25 2256.03 1486.25 Q2250.22 1486.25 2247.14 1481.67 Q2244.09 1477.06 2244.09 1468.33 Q2244.09 1459.58 2247.14 1455 Q2250.22 1450.39 2256.03 1450.39 Z" fill="#000000" fill-rule="nonzero" fill-opacity="1"></path><path clip-path="url(#clip810)" d="M2276.19 1479.7 L2281.08 1479.7 L2281.08 1485.58 L2276.19 1485.58 L2276.19 1479.7 Z" fill="#000000" fill-rule="nonzero" fill-opacity="1"></path><path clip-path="url(#clip810)" d="M2295.29 1481.64 L2311.61 1481.64 L2311.61 1485.58 L2289.67 1485.58 L2289.67 1481.64 Q2292.33 1478.89 2296.91 1474.26 Q2301.52 1469.61 2302.7 1468.27 Q2304.94 1465.74 2305.82 1464.01 Q2306.73 1462.25 2306.73 1460.56 Q2306.73 1457.8 2304.78 1456.07 Q2302.86 1454.33 2299.76 1454.33 Q2297.56 1454.33 2295.11 1455.09 Q2292.68 1455.86 2289.9 1457.41 L2289.9 1452.69 Q2292.72 1451.55 2295.18 1450.97 Q2297.63 1450.39 2299.67 1450.39 Q2305.04 1450.39 2308.23 1453.08 Q2311.43 1455.77 2311.43 1460.26 Q2311.43 1462.39 2310.62 1464.31 Q2309.83 1466.2 2307.72 1468.8 Q2307.14 1469.47 2304.04 1472.69 Q2300.94 1475.88 2295.29 1481.64 Z" fill="#000000" fill-rule="nonzero" fill-opacity="1"></path><path clip-path="url(#clip810)" d="M2321.47 1451.02 L2339.83 1451.02 L2339.83 1454.96 L2325.75 1454.96 L2325.75 1463.43 Q2326.77 1463.08 2327.79 1462.92 Q2328.81 1462.73 2329.83 1462.73 Q2335.62 1462.73 2338.99 1465.9 Q2342.37 1469.08 2342.37 1474.49 Q2342.37 1480.07 2338.9 1483.17 Q2335.43 1486.25 2329.11 1486.25 Q2326.93 1486.25 2324.67 1485.88 Q2322.42 1485.51 2320.01 1484.77 L2320.01 1480.07 Q2322.1 1481.2 2324.32 1481.76 Q2326.54 1482.32 2329.02 1482.32 Q2333.02 1482.32 2335.36 1480.21 Q2337.7 1478.1 2337.7 1474.49 Q2337.7 1470.88 2335.36 1468.77 Q2333.02 1466.67 2329.02 1466.67 Q2327.14 1466.67 2325.27 1467.08 Q2323.42 1467.5 2321.47 1468.38 L2321.47 1451.02 Z" fill="#000000" fill-rule="nonzero" fill-opacity="1"></path><path clip-path="url(#clip810)" d="M1311.59 1537.87 Q1310.6 1537.3 1309.42 1537.04 Q1308.28 1536.76 1306.88 1536.76 Q1301.91 1536.76 1299.24 1540 Q1296.6 1543.22 1296.6 1549.27 L1296.6 1568.04 L1290.71 1568.04 L1290.71 1532.4 L1296.6 1532.4 L1296.6 1537.93 Q1298.44 1534.69 1301.4 1533.13 Q1304.36 1531.54 1308.6 1531.54 Q1309.2 1531.54 1309.93 1531.63 Q1310.67 1531.7 1311.56 1531.85 L1311.59 1537.87 Z" fill="#000000" fill-rule="nonzero" fill-opacity="1"></path><polyline clip-path="url(#clip810)" style="stroke:#000000; stroke-linecap:round; stroke-linejoin:round; stroke-width:4; stroke-opacity:1; fill:none" points="249.542,1423.18 249.542,123.472 "></polyline>
<polyline clip-path="url(#clip810)" style="stroke:#000000; stroke-linecap:round; stroke-linejoin:round; stroke-width:4; stroke-opacity:1; fill:none" points="249.542,1423.18 268.44,1423.18 "></polyline>
<polyline clip-path="url(#clip810)" style="stroke:#000000; stroke-linecap:round; stroke-linejoin:round; stroke-width:4; stroke-opacity:1; fill:none" points="249.542,1163.24 268.44,1163.24 "></polyline>
<polyline clip-path="url(#clip810)" style="stroke:#000000; stroke-linecap:round; stroke-linejoin:round; stroke-width:4; stroke-opacity:1; fill:none" points="249.542,903.297 268.44,903.297 "></polyline>
<polyline clip-path="url(#clip810)" style="stroke:#000000; stroke-linecap:round; stroke-linejoin:round; stroke-width:4; stroke-opacity:1; fill:none" points="249.542,643.355 268.44,643.355 "></polyline>
<polyline clip-path="url(#clip810)" style="stroke:#000000; stroke-linecap:round; stroke-linejoin:round; stroke-width:4; stroke-opacity:1; fill:none" points="249.542,383.414 268.44,383.414 "></polyline>
<path clip-path="url(#clip810)" d="M126.205 1408.98 Q122.593 1408.98 120.765 1412.54 Q118.959 1416.08 118.959 1423.21 Q118.959 1430.32 120.765 1433.89 Q122.593 1437.43 126.205 1437.43 Q129.839 1437.43 131.644 1433.89 Q133.473 1430.32 133.473 1423.21 Q133.473 1416.08 131.644 1412.54 Q129.839 1408.98 126.205 1408.98 M126.205 1405.27 Q132.015 1405.27 135.07 1409.88 Q138.149 1414.46 138.149 1423.21 Q138.149 1431.94 135.07 1436.55 Q132.015 1441.13 126.205 1441.13 Q120.394 1441.13 117.316 1436.55 Q114.26 1431.94 114.26 1423.21 Q114.26 1414.46 117.316 1409.88 Q120.394 1405.27 126.205 1405.27 Z" fill="#000000" fill-rule="nonzero" fill-opacity="1"></path><path clip-path="url(#clip810)" d="M146.366 1434.58 L151.251 1434.58 L151.251 1440.46 L146.366 1440.46 L146.366 1434.58 Z" fill="#000000" fill-rule="nonzero" fill-opacity="1"></path><path clip-path="url(#clip810)" d="M171.436 1408.98 Q167.825 1408.98 165.996 1412.54 Q164.19 1416.08 164.19 1423.21 Q164.19 1430.32 165.996 1433.89 Q167.825 1437.43 171.436 1437.43 Q175.07 1437.43 176.876 1433.89 Q178.704 1430.32 178.704 1423.21 Q178.704 1416.08 176.876 1412.54 Q175.07 1408.98 171.436 1408.98 M171.436 1405.27 Q177.246 1405.27 180.301 1409.88 Q183.38 1414.46 183.38 1423.21 Q183.38 1431.94 180.301 1436.55 Q177.246 1441.13 171.436 1441.13 Q165.626 1441.13 162.547 1436.55 Q159.491 1431.94 159.491 1423.21 Q159.491 1414.46 162.547 1409.88 Q165.626 1405.27 171.436 1405.27 Z" fill="#000000" fill-rule="nonzero" fill-opacity="1"></path><path clip-path="url(#clip810)" d="M201.598 1408.98 Q197.987 1408.98 196.158 1412.54 Q194.352 1416.08 194.352 1423.21 Q194.352 1430.32 196.158 1433.89 Q197.987 1437.43 201.598 1437.43 Q205.232 1437.43 207.037 1433.89 Q208.866 1430.32 208.866 1423.21 Q208.866 1416.08 207.037 1412.54 Q205.232 1408.98 201.598 1408.98 M201.598 1405.27 Q207.408 1405.27 210.463 1409.88 Q213.542 1414.46 213.542 1423.21 Q213.542 1431.94 210.463 1436.55 Q207.408 1441.13 201.598 1441.13 Q195.787 1441.13 192.709 1436.55 Q189.653 1431.94 189.653 1423.21 Q189.653 1414.46 192.709 1409.88 Q195.787 1405.27 201.598 1405.27 Z" fill="#000000" fill-rule="nonzero" fill-opacity="1"></path><path clip-path="url(#clip810)" d="M127.2 1149.04 Q123.589 1149.04 121.76 1152.6 Q119.955 1156.14 119.955 1163.27 Q119.955 1170.38 121.76 1173.94 Q123.589 1177.49 127.2 1177.49 Q130.834 1177.49 132.64 1173.94 Q134.468 1170.38 134.468 1163.27 Q134.468 1156.14 132.64 1152.6 Q130.834 1149.04 127.2 1149.04 M127.2 1145.33 Q133.01 1145.33 136.066 1149.94 Q139.144 1154.52 139.144 1163.27 Q139.144 1172 136.066 1176.61 Q133.01 1181.19 127.2 1181.19 Q121.39 1181.19 118.311 1176.61 Q115.256 1172 115.256 1163.27 Q115.256 1154.52 118.311 1149.94 Q121.39 1145.33 127.2 1145.33 Z" fill="#000000" fill-rule="nonzero" fill-opacity="1"></path><path clip-path="url(#clip810)" d="M147.362 1174.64 L152.246 1174.64 L152.246 1180.52 L147.362 1180.52 L147.362 1174.64 Z" fill="#000000" fill-rule="nonzero" fill-opacity="1"></path><path clip-path="url(#clip810)" d="M172.431 1149.04 Q168.82 1149.04 166.991 1152.6 Q165.186 1156.14 165.186 1163.27 Q165.186 1170.38 166.991 1173.94 Q168.82 1177.49 172.431 1177.49 Q176.065 1177.49 177.871 1173.94 Q179.7 1170.38 179.7 1163.27 Q179.7 1156.14 177.871 1152.6 Q176.065 1149.04 172.431 1149.04 M172.431 1145.33 Q178.241 1145.33 181.297 1149.94 Q184.376 1154.52 184.376 1163.27 Q184.376 1172 181.297 1176.61 Q178.241 1181.19 172.431 1181.19 Q166.621 1181.19 163.542 1176.61 Q160.487 1172 160.487 1163.27 Q160.487 1154.52 163.542 1149.94 Q166.621 1145.33 172.431 1145.33 Z" fill="#000000" fill-rule="nonzero" fill-opacity="1"></path><path clip-path="url(#clip810)" d="M192.639 1145.96 L210.996 1145.96 L210.996 1149.89 L196.922 1149.89 L196.922 1158.37 Q197.94 1158.02 198.959 1157.86 Q199.977 1157.67 200.996 1157.67 Q206.783 1157.67 210.162 1160.84 Q213.542 1164.01 213.542 1169.43 Q213.542 1175.01 210.07 1178.11 Q206.598 1181.19 200.278 1181.19 Q198.102 1181.19 195.834 1180.82 Q193.588 1180.45 191.181 1179.71 L191.181 1175.01 Q193.264 1176.14 195.487 1176.7 Q197.709 1177.25 200.186 1177.25 Q204.19 1177.25 206.528 1175.15 Q208.866 1173.04 208.866 1169.43 Q208.866 1165.82 206.528 1163.71 Q204.19 1161.61 200.186 1161.61 Q198.311 1161.61 196.436 1162.02 Q194.584 1162.44 192.639 1163.32 L192.639 1145.96 Z" fill="#000000" fill-rule="nonzero" fill-opacity="1"></path><path clip-path="url(#clip810)" d="M126.205 889.095 Q122.593 889.095 120.765 892.66 Q118.959 896.202 118.959 903.331 Q118.959 910.438 120.765 914.003 Q122.593 917.544 126.205 917.544 Q129.839 917.544 131.644 914.003 Q133.473 910.438 133.473 903.331 Q133.473 896.202 131.644 892.66 Q129.839 889.095 126.205 889.095 M126.205 885.392 Q132.015 885.392 135.07 889.998 Q138.149 894.582 138.149 903.331 Q138.149 912.058 135.07 916.665 Q132.015 921.248 126.205 921.248 Q120.394 921.248 117.316 916.665 Q114.26 912.058 114.26 903.331 Q114.26 894.582 117.316 889.998 Q120.394 885.392 126.205 885.392 Z" fill="#000000" fill-rule="nonzero" fill-opacity="1"></path><path clip-path="url(#clip810)" d="M146.366 914.697 L151.251 914.697 L151.251 920.577 L146.366 920.577 L146.366 914.697 Z" fill="#000000" fill-rule="nonzero" fill-opacity="1"></path><path clip-path="url(#clip810)" d="M162.246 916.642 L169.885 916.642 L169.885 890.276 L161.575 891.943 L161.575 887.683 L169.839 886.017 L174.514 886.017 L174.514 916.642 L182.153 916.642 L182.153 920.577 L162.246 920.577 L162.246 916.642 Z" fill="#000000" fill-rule="nonzero" fill-opacity="1"></path><path clip-path="url(#clip810)" d="M201.598 889.095 Q197.987 889.095 196.158 892.66 Q194.352 896.202 194.352 903.331 Q194.352 910.438 196.158 914.003 Q197.987 917.544 201.598 917.544 Q205.232 917.544 207.037 914.003 Q208.866 910.438 208.866 903.331 Q208.866 896.202 207.037 892.66 Q205.232 889.095 201.598 889.095 M201.598 885.392 Q207.408 885.392 210.463 889.998 Q213.542 894.582 213.542 903.331 Q213.542 912.058 210.463 916.665 Q207.408 921.248 201.598 921.248 Q195.787 921.248 192.709 916.665 Q189.653 912.058 189.653 903.331 Q189.653 894.582 192.709 889.998 Q195.787 885.392 201.598 885.392 Z" fill="#000000" fill-rule="nonzero" fill-opacity="1"></path><path clip-path="url(#clip810)" d="M127.2 629.154 Q123.589 629.154 121.76 632.719 Q119.955 636.26 119.955 643.39 Q119.955 650.496 121.76 654.061 Q123.589 657.603 127.2 657.603 Q130.834 657.603 132.64 654.061 Q134.468 650.496 134.468 643.39 Q134.468 636.26 132.64 632.719 Q130.834 629.154 127.2 629.154 M127.2 625.45 Q133.01 625.45 136.066 630.057 Q139.144 634.64 139.144 643.39 Q139.144 652.117 136.066 656.723 Q133.01 661.307 127.2 661.307 Q121.39 661.307 118.311 656.723 Q115.256 652.117 115.256 643.39 Q115.256 634.64 118.311 630.057 Q121.39 625.45 127.2 625.45 Z" fill="#000000" fill-rule="nonzero" fill-opacity="1"></path><path clip-path="url(#clip810)" d="M147.362 654.756 L152.246 654.756 L152.246 660.635 L147.362 660.635 L147.362 654.756 Z" fill="#000000" fill-rule="nonzero" fill-opacity="1"></path><path clip-path="url(#clip810)" d="M163.241 656.7 L170.88 656.7 L170.88 630.334 L162.57 632.001 L162.57 627.742 L170.834 626.075 L175.51 626.075 L175.51 656.7 L183.149 656.7 L183.149 660.635 L163.241 660.635 L163.241 656.7 Z" fill="#000000" fill-rule="nonzero" fill-opacity="1"></path><path clip-path="url(#clip810)" d="M192.639 626.075 L210.996 626.075 L210.996 630.01 L196.922 630.01 L196.922 638.483 Q197.94 638.135 198.959 637.973 Q199.977 637.788 200.996 637.788 Q206.783 637.788 210.162 640.959 Q213.542 644.131 213.542 649.547 Q213.542 655.126 210.07 658.228 Q206.598 661.307 200.278 661.307 Q198.102 661.307 195.834 660.936 Q193.588 660.566 191.181 659.825 L191.181 655.126 Q193.264 656.26 195.487 656.816 Q197.709 657.371 200.186 657.371 Q204.19 657.371 206.528 655.265 Q208.866 653.158 208.866 649.547 Q208.866 645.936 206.528 643.83 Q204.19 641.723 200.186 641.723 Q198.311 641.723 196.436 642.14 Q194.584 642.557 192.639 643.436 L192.639 626.075 Z" fill="#000000" fill-rule="nonzero" fill-opacity="1"></path><path clip-path="url(#clip810)" d="M126.205 369.212 Q122.593 369.212 120.765 372.777 Q118.959 376.319 118.959 383.448 Q118.959 390.555 120.765 394.12 Q122.593 397.661 126.205 397.661 Q129.839 397.661 131.644 394.12 Q133.473 390.555 133.473 383.448 Q133.473 376.319 131.644 372.777 Q129.839 369.212 126.205 369.212 M126.205 365.509 Q132.015 365.509 135.07 370.115 Q138.149 374.698 138.149 383.448 Q138.149 392.175 135.07 396.782 Q132.015 401.365 126.205 401.365 Q120.394 401.365 117.316 396.782 Q114.26 392.175 114.26 383.448 Q114.26 374.698 117.316 370.115 Q120.394 365.509 126.205 365.509 Z" fill="#000000" fill-rule="nonzero" fill-opacity="1"></path><path clip-path="url(#clip810)" d="M146.366 394.814 L151.251 394.814 L151.251 400.694 L146.366 400.694 L146.366 394.814 Z" fill="#000000" fill-rule="nonzero" fill-opacity="1"></path><path clip-path="url(#clip810)" d="M165.464 396.759 L181.783 396.759 L181.783 400.694 L159.839 400.694 L159.839 396.759 Q162.501 394.004 167.084 389.374 Q171.69 384.722 172.871 383.379 Q175.116 380.856 175.996 379.12 Q176.899 377.36 176.899 375.671 Q176.899 372.916 174.954 371.18 Q173.033 369.444 169.931 369.444 Q167.732 369.444 165.278 370.208 Q162.848 370.972 160.07 372.523 L160.07 367.8 Q162.894 366.666 165.348 366.087 Q167.802 365.509 169.839 365.509 Q175.209 365.509 178.403 368.194 Q181.598 370.879 181.598 375.37 Q181.598 377.499 180.788 379.421 Q180.001 381.319 177.894 383.911 Q177.315 384.583 174.214 387.8 Q171.112 390.995 165.464 396.759 Z" fill="#000000" fill-rule="nonzero" fill-opacity="1"></path><path clip-path="url(#clip810)" d="M201.598 369.212 Q197.987 369.212 196.158 372.777 Q194.352 376.319 194.352 383.448 Q194.352 390.555 196.158 394.12 Q197.987 397.661 201.598 397.661 Q205.232 397.661 207.037 394.12 Q208.866 390.555 208.866 383.448 Q208.866 376.319 207.037 372.777 Q205.232 369.212 201.598 369.212 M201.598 365.509 Q207.408 365.509 210.463 370.115 Q213.542 374.698 213.542 383.448 Q213.542 392.175 210.463 396.782 Q207.408 401.365 201.598 401.365 Q195.787 401.365 192.709 396.782 Q189.653 392.175 189.653 383.448 Q189.653 374.698 192.709 370.115 Q195.787 365.509 201.598 365.509 Z" fill="#000000" fill-rule="nonzero" fill-opacity="1"></path><path clip-path="url(#clip810)" d="M21.7677 906.353 L39.6235 906.353 L39.6235 898.269 Q39.6235 893.781 37.3 891.33 Q34.9765 888.879 30.6797 888.879 Q26.4147 888.879 24.0912 891.33 Q21.7677 893.781 21.7677 898.269 L21.7677 906.353 M16.4842 912.783 L16.4842 898.269 Q16.4842 890.28 20.1126 886.206 Q23.7092 882.1 30.6797 882.1 Q37.7138 882.1 41.3104 886.206 Q44.907 890.28 44.907 898.269 L44.907 906.353 L64.0042 906.353 L64.0042 912.783 L16.4842 912.783 Z" fill="#000000" fill-rule="nonzero" fill-opacity="1"></path><path clip-path="url(#clip810)" d="M33.8307 854.218 Q33.2578 855.205 33.0032 856.383 Q32.7167 857.528 32.7167 858.929 Q32.7167 863.894 35.9632 866.568 Q39.1779 869.209 45.2253 869.209 L64.0042 869.209 L64.0042 875.098 L28.3562 875.098 L28.3562 869.209 L33.8944 869.209 Q30.6479 867.363 29.0883 864.403 Q27.4968 861.443 27.4968 857.21 Q27.4968 856.605 27.5923 855.873 Q27.656 855.141 27.8151 854.25 L33.8307 854.218 Z" fill="#000000" fill-rule="nonzero" fill-opacity="1"></path><path clip-path="url(#clip810)" d="M44.7161 819.016 L47.5806 819.016 L47.5806 845.943 Q53.6281 845.561 56.8109 842.314 Q59.9619 839.036 59.9619 833.211 Q59.9619 829.838 59.1344 826.687 Q58.3069 823.504 56.6518 820.384 L62.1899 820.384 Q63.5267 823.535 64.227 826.846 Q64.9272 830.156 64.9272 833.561 Q64.9272 842.092 59.9619 847.089 Q54.9967 852.054 46.5303 852.054 Q37.7774 852.054 32.6531 847.343 Q27.4968 842.601 27.4968 834.58 Q27.4968 827.387 32.1438 823.217 Q36.7589 819.016 44.7161 819.016 M42.9973 824.872 Q38.1912 824.936 35.3266 827.578 Q32.4621 830.188 32.4621 834.516 Q32.4621 839.418 35.2312 842.378 Q38.0002 845.306 43.0292 845.752 L42.9973 824.872 Z" fill="#000000" fill-rule="nonzero" fill-opacity="1"></path><path clip-path="url(#clip810)" d="M29.7248 783.75 L35.1993 783.75 Q33.8307 786.232 33.1623 788.747 Q32.4621 791.23 32.4621 793.776 Q32.4621 799.473 36.0905 802.624 Q39.6872 805.775 46.212 805.775 Q52.7369 805.775 56.3653 802.624 Q59.9619 799.473 59.9619 793.776 Q59.9619 791.23 59.2935 788.747 Q58.5933 786.232 57.2247 783.75 L62.6355 783.75 Q63.7814 786.201 64.3543 788.842 Q64.9272 791.452 64.9272 794.412 Q64.9272 802.465 59.8664 807.207 Q54.8057 811.95 46.212 811.95 Q37.491 811.95 32.4939 807.176 Q27.4968 802.37 27.4968 794.03 Q27.4968 791.325 28.0697 788.747 Q28.6108 786.169 29.7248 783.75 Z" fill="#000000" fill-rule="nonzero" fill-opacity="1"></path><path clip-path="url(#clip810)" d="M28.3562 773.565 L28.3562 767.708 L64.0042 767.708 L64.0042 773.565 L28.3562 773.565 M14.479 773.565 L14.479 767.708 L21.895 767.708 L21.895 773.565 L14.479 773.565 Z" fill="#000000" fill-rule="nonzero" fill-opacity="1"></path><path clip-path="url(#clip810)" d="M29.4065 732.729 L34.9447 732.729 Q33.6716 735.211 33.035 737.885 Q32.3984 740.559 32.3984 743.423 Q32.3984 747.784 33.7352 749.98 Q35.072 752.144 37.7456 752.144 Q39.7826 752.144 40.9603 750.584 Q42.1061 749.025 43.1565 744.314 L43.6021 742.309 Q44.9389 736.071 47.3897 733.461 Q49.8086 730.819 54.1691 730.819 Q59.1344 730.819 62.0308 734.766 Q64.9272 738.681 64.9272 745.556 Q64.9272 748.42 64.3543 751.539 Q63.8132 754.627 62.6992 758.064 L56.6518 758.064 Q58.3387 754.818 59.198 751.667 Q60.0256 748.516 60.0256 745.428 Q60.0256 741.291 58.6251 739.063 Q57.1929 736.835 54.6147 736.835 Q52.2276 736.835 50.9545 738.458 Q49.6813 740.049 48.5037 745.492 L48.0262 747.529 Q46.8804 752.972 44.5251 755.391 Q42.138 757.81 38.0002 757.81 Q32.9713 757.81 30.2341 754.245 Q27.4968 750.68 27.4968 744.123 Q27.4968 740.877 27.9743 738.012 Q28.4517 735.148 29.4065 732.729 Z" fill="#000000" fill-rule="nonzero" fill-opacity="1"></path><path clip-path="url(#clip810)" d="M28.3562 721.493 L28.3562 715.637 L64.0042 715.637 L64.0042 721.493 L28.3562 721.493 M14.479 721.493 L14.479 715.637 L21.895 715.637 L21.895 721.493 L14.479 721.493 Z" fill="#000000" fill-rule="nonzero" fill-opacity="1"></path><path clip-path="url(#clip810)" d="M32.4621 689.569 Q32.4621 694.28 36.1542 697.017 Q39.8145 699.754 46.212 699.754 Q52.6095 699.754 56.3017 697.049 Q59.9619 694.312 59.9619 689.569 Q59.9619 684.89 56.2698 682.153 Q52.5777 679.416 46.212 679.416 Q39.8781 679.416 36.186 682.153 Q32.4621 684.89 32.4621 689.569 M27.4968 689.569 Q27.4968 681.93 32.4621 677.57 Q37.4273 673.209 46.212 673.209 Q54.9649 673.209 59.9619 677.57 Q64.9272 681.93 64.9272 689.569 Q64.9272 697.24 59.9619 701.6 Q54.9649 705.929 46.212 705.929 Q37.4273 705.929 32.4621 701.6 Q27.4968 697.24 27.4968 689.569 Z" fill="#000000" fill-rule="nonzero" fill-opacity="1"></path><path clip-path="url(#clip810)" d="M42.4881 633.869 L64.0042 633.869 L64.0042 639.726 L42.679 639.726 Q37.6183 639.726 35.1038 641.699 Q32.5894 643.672 32.5894 647.619 Q32.5894 652.362 35.6131 655.099 Q38.6368 657.836 43.8567 657.836 L64.0042 657.836 L64.0042 663.724 L28.3562 663.724 L28.3562 657.836 L33.8944 657.836 Q30.6797 655.735 29.0883 652.903 Q27.4968 650.038 27.4968 646.314 Q27.4968 640.171 31.3163 637.02 Q35.1038 633.869 42.4881 633.869 Z" fill="#000000" fill-rule="nonzero" fill-opacity="1"></path><path clip-path="url(#clip810)" d="M843.174 18.8205 L843.174 41.5461 L853.463 41.5461 Q859.175 41.5461 862.294 38.5889 Q865.413 35.6318 865.413 30.163 Q865.413 24.7348 862.294 21.7777 Q859.175 18.8205 853.463 18.8205 L843.174 18.8205 M834.991 12.096 L853.463 12.096 Q863.631 12.096 868.816 16.714 Q874.042 21.2916 874.042 30.163 Q874.042 39.1155 868.816 43.6931 Q863.631 48.2706 853.463 48.2706 L843.174 48.2706 L843.174 72.576 L834.991 72.576 L834.991 12.096 Z" fill="#000000" fill-rule="nonzero" fill-opacity="1"></path><path clip-path="url(#clip810)" d="M909.528 34.1734 Q908.272 33.4443 906.773 33.1202 Q905.315 32.7556 903.532 32.7556 Q897.213 32.7556 893.81 36.8875 Q890.448 40.9789 890.448 48.6757 L890.448 72.576 L882.954 72.576 L882.954 27.2059 L890.448 27.2059 L890.448 34.2544 Q892.798 30.1225 896.565 28.1376 Q900.332 26.1121 905.72 26.1121 Q906.49 26.1121 907.421 26.2337 Q908.353 26.3147 909.487 26.5172 L909.528 34.1734 Z" fill="#000000" fill-rule="nonzero" fill-opacity="1"></path><path clip-path="url(#clip810)" d="M954.331 48.0275 L954.331 51.6733 L920.06 51.6733 Q920.546 59.3701 924.678 63.421 Q928.851 67.4314 936.264 67.4314 Q940.558 67.4314 944.568 66.3781 Q948.619 65.3249 952.589 63.2184 L952.589 70.267 Q948.579 71.9684 944.366 72.8596 Q940.153 73.7508 935.818 73.7508 Q924.962 73.7508 918.602 67.4314 Q912.282 61.1119 912.282 50.3365 Q912.282 39.1965 918.278 32.6746 Q924.314 26.1121 934.522 26.1121 Q943.677 26.1121 948.984 32.0264 Q954.331 37.9003 954.331 48.0275 M946.877 45.84 Q946.796 39.7232 943.434 36.0774 Q940.112 32.4315 934.603 32.4315 Q928.365 32.4315 924.597 35.9558 Q920.87 39.4801 920.303 45.8805 L946.877 45.84 Z" fill="#000000" fill-rule="nonzero" fill-opacity="1"></path><path clip-path="url(#clip810)" d="M999.215 28.9478 L999.215 35.9153 Q996.055 34.1734 992.855 33.3227 Q989.695 32.4315 986.454 32.4315 Q979.203 32.4315 975.193 37.0496 Q971.183 41.6271 971.183 49.9314 Q971.183 58.2358 975.193 62.8538 Q979.203 67.4314 986.454 67.4314 Q989.695 67.4314 992.855 66.5807 Q996.055 65.6895 999.215 63.9476 L999.215 70.8341 Q996.096 72.2924 992.733 73.0216 Q989.412 73.7508 985.644 73.7508 Q975.396 73.7508 969.36 67.3098 Q963.324 60.8689 963.324 49.9314 Q963.324 38.832 969.4 32.472 Q975.517 26.1121 986.13 26.1121 Q989.574 26.1121 992.855 26.8413 Q996.136 27.5299 999.215 28.9478 Z" fill="#000000" fill-rule="nonzero" fill-opacity="1"></path><path clip-path="url(#clip810)" d="M1012.18 27.2059 L1019.63 27.2059 L1019.63 72.576 L1012.18 72.576 L1012.18 27.2059 M1012.18 9.54393 L1019.63 9.54393 L1019.63 18.9825 L1012.18 18.9825 L1012.18 9.54393 Z" fill="#000000" fill-rule="nonzero" fill-opacity="1"></path><path clip-path="url(#clip810)" d="M1064.15 28.5427 L1064.15 35.5912 Q1060.99 33.9709 1057.59 33.1607 Q1054.19 32.3505 1050.54 32.3505 Q1044.99 32.3505 1042.19 34.0519 Q1039.44 35.7533 1039.44 39.156 Q1039.44 41.7486 1041.43 43.2475 Q1043.41 44.7058 1049.41 46.0426 L1051.96 46.6097 Q1059.9 48.3111 1063.22 51.4303 Q1066.58 54.509 1066.58 60.0587 Q1066.58 66.3781 1061.56 70.0644 Q1056.58 73.7508 1047.83 73.7508 Q1044.18 73.7508 1040.21 73.0216 Q1036.28 72.3329 1031.91 70.9151 L1031.91 63.2184 Q1036.04 65.3654 1040.05 66.4591 Q1044.06 67.5124 1047.99 67.5124 Q1053.25 67.5124 1056.09 65.73 Q1058.93 63.9071 1058.93 60.6258 Q1058.93 57.5877 1056.86 55.9673 Q1054.83 54.3469 1047.91 52.8481 L1045.31 52.2405 Q1038.39 50.7821 1035.31 47.7845 Q1032.23 44.7463 1032.23 39.4801 Q1032.23 33.0797 1036.77 29.5959 Q1041.3 26.1121 1049.65 26.1121 Q1053.78 26.1121 1057.43 26.7198 Q1061.07 27.3274 1064.15 28.5427 Z" fill="#000000" fill-rule="nonzero" fill-opacity="1"></path><path clip-path="url(#clip810)" d="M1078.45 27.2059 L1085.9 27.2059 L1085.9 72.576 L1078.45 72.576 L1078.45 27.2059 M1078.45 9.54393 L1085.9 9.54393 L1085.9 18.9825 L1078.45 18.9825 L1078.45 9.54393 Z" fill="#000000" fill-rule="nonzero" fill-opacity="1"></path><path clip-path="url(#clip810)" d="M1119.08 32.4315 Q1113.09 32.4315 1109.6 37.1306 Q1106.12 41.7891 1106.12 49.9314 Q1106.12 58.0738 1109.56 62.7728 Q1113.05 67.4314 1119.08 67.4314 Q1125.04 67.4314 1128.52 62.7323 Q1132 58.0333 1132 49.9314 Q1132 41.8701 1128.52 37.1711 Q1125.04 32.4315 1119.08 32.4315 M1119.08 26.1121 Q1128.8 26.1121 1134.35 32.4315 Q1139.9 38.7509 1139.9 49.9314 Q1139.9 61.0714 1134.35 67.4314 Q1128.8 73.7508 1119.08 73.7508 Q1109.32 73.7508 1103.77 67.4314 Q1098.26 61.0714 1098.26 49.9314 Q1098.26 38.7509 1103.77 32.4315 Q1109.32 26.1121 1119.08 26.1121 Z" fill="#000000" fill-rule="nonzero" fill-opacity="1"></path><path clip-path="url(#clip810)" d="M1189.97 45.1919 L1189.97 72.576 L1182.52 72.576 L1182.52 45.4349 Q1182.52 38.994 1180.01 35.7938 Q1177.5 32.5936 1172.47 32.5936 Q1166.44 32.5936 1162.95 36.4419 Q1159.47 40.2903 1159.47 46.9338 L1159.47 72.576 L1151.97 72.576 L1151.97 27.2059 L1159.47 27.2059 L1159.47 34.2544 Q1162.14 30.163 1165.75 28.1376 Q1169.39 26.1121 1174.13 26.1121 Q1181.95 26.1121 1185.96 30.9732 Q1189.97 35.7938 1189.97 45.1919 Z" fill="#000000" fill-rule="nonzero" fill-opacity="1"></path><path clip-path="url(#clip810)" d="M1225.86 27.2059 L1233.76 27.2059 L1247.94 65.2844 L1262.12 27.2059 L1270.02 27.2059 L1253 72.576 L1242.88 72.576 L1225.86 27.2059 Z" fill="#000000" fill-rule="nonzero" fill-opacity="1"></path><path clip-path="url(#clip810)" d="M1309.23 28.5427 L1309.23 35.5912 Q1306.07 33.9709 1302.67 33.1607 Q1299.27 32.3505 1295.62 32.3505 Q1290.07 32.3505 1287.27 34.0519 Q1284.52 35.7533 1284.52 39.156 Q1284.52 41.7486 1286.5 43.2475 Q1288.49 44.7058 1294.49 46.0426 L1297.04 46.6097 Q1304.98 48.3111 1308.3 51.4303 Q1311.66 54.509 1311.66 60.0587 Q1311.66 66.3781 1306.64 70.0644 Q1301.66 73.7508 1292.91 73.7508 Q1289.26 73.7508 1285.29 73.0216 Q1281.36 72.3329 1276.99 70.9151 L1276.99 63.2184 Q1281.12 65.3654 1285.13 66.4591 Q1289.14 67.5124 1293.07 67.5124 Q1298.33 67.5124 1301.17 65.73 Q1304 63.9071 1304 60.6258 Q1304 57.5877 1301.94 55.9673 Q1299.91 54.3469 1292.99 52.8481 L1290.39 52.2405 Q1283.47 50.7821 1280.39 47.7845 Q1277.31 44.7463 1277.31 39.4801 Q1277.31 33.0797 1281.85 29.5959 Q1286.38 26.1121 1294.73 26.1121 Q1298.86 26.1121 1302.51 26.7198 Q1306.15 27.3274 1309.23 28.5427 Z" fill="#000000" fill-rule="nonzero" fill-opacity="1"></path><path clip-path="url(#clip810)" d="M1376.19 34.1734 Q1374.94 33.4443 1373.44 33.1202 Q1371.98 32.7556 1370.2 32.7556 Q1363.88 32.7556 1360.47 36.8875 Q1357.11 40.9789 1357.11 48.6757 L1357.11 72.576 L1349.62 72.576 L1349.62 27.2059 L1357.11 27.2059 L1357.11 34.2544 Q1359.46 30.1225 1363.23 28.1376 Q1367 26.1121 1372.38 26.1121 Q1373.15 26.1121 1374.09 26.2337 Q1375.02 26.3147 1376.15 26.5172 L1376.19 34.1734 Z" fill="#000000" fill-rule="nonzero" fill-opacity="1"></path><path clip-path="url(#clip810)" d="M1428.29 9.62495 Q1422.86 18.942 1420.23 28.0566 Q1417.59 37.1711 1417.59 46.5287 Q1417.59 55.8863 1420.23 65.0818 Q1422.9 74.2369 1428.29 83.5134 L1421.81 83.5134 Q1415.73 73.9938 1412.69 64.7983 Q1409.69 55.6027 1409.69 46.5287 Q1409.69 37.4952 1412.69 28.3401 Q1415.69 19.1851 1421.81 9.62495 L1428.29 9.62495 Z" fill="#000000" fill-rule="nonzero" fill-opacity="1"></path><path clip-path="url(#clip810)" d="M1450.2 69.7809 L1450.2 89.8329 L1442.71 89.8329 L1442.71 27.4894 Q1442.71 9.01731 1459.96 9.01731 Q1477.55 9.01731 1477.55 24.6133 Q1477.55 35.7128 1470.58 39.7637 Q1481.92 43.4095 1481.92 54.2254 Q1481.92 73.4267 1462.4 73.4267 Q1453.81 73.4267 1450.2 69.7809 M1450.2 60.0587 Q1454.7 67.0668 1462.68 67.0668 Q1474.35 67.0668 1474.35 54.3469 Q1474.35 42.9234 1455.55 43.8146 L1455.55 36.928 Q1470.25 36.928 1470.25 23.9651 Q1470.25 15.0937 1460.77 15.0937 Q1450.2 15.0937 1450.2 27.7325 L1450.2 60.0587 Z" fill="#000000" fill-rule="nonzero" fill-opacity="1"></path><path clip-path="url(#clip810)" d="M1523.04 34.9026 L1574.97 34.9026 L1574.97 41.7081 L1523.04 41.7081 L1523.04 34.9026 M1523.04 51.4303 L1574.97 51.4303 L1574.97 58.3168 L1523.04 58.3168 L1523.04 51.4303 Z" fill="#000000" fill-rule="nonzero" fill-opacity="1"></path><path clip-path="url(#clip810)" d="M1636.5 17.4837 Q1630.18 17.4837 1626.98 23.7221 Q1623.82 29.92 1623.82 42.3968 Q1623.82 54.833 1626.98 61.0714 Q1630.18 67.2693 1636.5 67.2693 Q1642.86 67.2693 1646.02 61.0714 Q1649.22 54.833 1649.22 42.3968 Q1649.22 29.92 1646.02 23.7221 Q1642.86 17.4837 1636.5 17.4837 M1636.5 11.0023 Q1646.67 11.0023 1652.02 19.0636 Q1657.41 27.0843 1657.41 42.3968 Q1657.41 57.6687 1652.02 65.73 Q1646.67 73.7508 1636.5 73.7508 Q1626.34 73.7508 1620.95 65.73 Q1615.6 57.6687 1615.6 42.3968 Q1615.6 27.0843 1620.95 19.0636 Q1626.34 11.0023 1636.5 11.0023 Z" fill="#000000" fill-rule="nonzero" fill-opacity="1"></path><path clip-path="url(#clip810)" d="M1671.79 62.2867 L1680.33 62.2867 L1680.33 72.576 L1671.79 72.576 L1671.79 62.2867 Z" fill="#000000" fill-rule="nonzero" fill-opacity="1"></path><path clip-path="url(#clip810)" d="M1705.21 65.6895 L1733.77 65.6895 L1733.77 72.576 L1695.36 72.576 L1695.36 65.6895 Q1700.02 60.8689 1708.04 52.7671 Q1716.1 44.6248 1718.17 42.2752 Q1722.1 37.8598 1723.64 34.8216 Q1725.22 31.7429 1725.22 28.7857 Q1725.22 23.9651 1721.82 20.927 Q1718.45 17.8888 1713.02 17.8888 Q1709.18 17.8888 1704.88 19.2256 Q1700.63 20.5624 1695.77 23.2765 L1695.77 15.0127 Q1700.71 13.0277 1705 12.015 Q1709.3 11.0023 1712.86 11.0023 Q1722.26 11.0023 1727.85 15.7013 Q1733.44 20.4004 1733.44 28.2591 Q1733.44 31.9859 1732.02 35.3482 Q1730.65 38.6699 1726.96 43.2069 Q1725.95 44.3817 1720.52 50.0125 Q1715.09 55.6027 1705.21 65.6895 Z" fill="#000000" fill-rule="nonzero" fill-opacity="1"></path><path clip-path="url(#clip810)" d="M1748.71 9.62495 L1755.19 9.62495 Q1761.27 19.1851 1764.27 28.3401 Q1767.31 37.4952 1767.31 46.5287 Q1767.31 55.6027 1764.27 64.7983 Q1761.27 73.9938 1755.19 83.5134 L1748.71 83.5134 Q1754.1 74.2369 1756.73 65.0818 Q1759.41 55.8863 1759.41 46.5287 Q1759.41 37.1711 1756.73 28.0566 Q1754.1 18.942 1748.71 9.62495 Z" fill="#000000" fill-rule="nonzero" fill-opacity="1"></path><path clip-path="url(#clip812)" d="M309.067 2273.84 L805.108 2436.74 L1301.15 2492.77 L1797.19 2499.31 L2293.23 2484.81 L2293.23 -1509.19 L1797.19 -1242.75 L1301.15 -947.889 L805.108 -497.676 L309.067 92.6628  Z" fill="#009af9" fill-rule="evenodd" fill-opacity="0.5"></path>
<polyline clip-path="url(#clip812)" style="stroke:#009af9; stroke-linecap:round; stroke-linejoin:round; stroke-width:8; stroke-opacity:1; fill:none" points="309.067,1183.25 805.108,969.53 1301.15,772.442 1797.19,628.279 2293.23,487.806 "></polyline>
<path clip-path="url(#clip812)" d="M309.067 1199.25 L297.755 1194.57 L293.067 1183.25 L297.755 1171.94 L309.067 1167.25 L320.379 1171.94 L325.067 1183.25 L320.379 1194.57 Z" fill="#009af9" fill-rule="evenodd" fill-opacity="1" stroke="#000000" stroke-opacity="1" stroke-width="3.2"></path>
<path clip-path="url(#clip812)" d="M805.108 985.53 L793.796 980.842 L789.108 969.53 L793.796 958.218 L805.108 953.53 L816.42 958.218 L821.108 969.53 L816.42 980.842 Z" fill="#009af9" fill-rule="evenodd" fill-opacity="1" stroke="#000000" stroke-opacity="1" stroke-width="3.2"></path>
<path clip-path="url(#clip812)" d="M1301.15 788.442 L1289.84 783.754 L1285.15 772.442 L1289.84 761.13 L1301.15 756.442 L1312.46 761.13 L1317.15 772.442 L1312.46 783.754 Z" fill="#009af9" fill-rule="evenodd" fill-opacity="1" stroke="#000000" stroke-opacity="1" stroke-width="3.2"></path>
<path clip-path="url(#clip812)" d="M1797.19 644.279 L1785.88 639.591 L1781.19 628.279 L1785.88 616.967 L1797.19 612.279 L1808.5 616.967 L1813.19 628.279 L1808.5 639.591 Z" fill="#009af9" fill-rule="evenodd" fill-opacity="1" stroke="#000000" stroke-opacity="1" stroke-width="3.2"></path>
<path clip-path="url(#clip812)" d="M2293.23 503.806 L2281.92 499.118 L2277.23 487.806 L2281.92 476.494 L2293.23 471.806 L2304.54 476.494 L2309.23 487.806 L2304.54 499.118 Z" fill="#009af9" fill-rule="evenodd" fill-opacity="1" stroke="#000000" stroke-opacity="1" stroke-width="3.2"></path>
<path clip-path="url(#clip812)" d="M309.067 1890.73 L805.108 2076.82 L1301.15 2178.76 L1797.19 2274.86 L2293.23 2326.34 L2293.23 -68.4238 L1797.19 85.0423 L1301.15 322.649 L805.108 532.399 L309.067 849.006  Z" fill="#e26f46" fill-rule="evenodd" fill-opacity="0.5"></path>
<polyline clip-path="url(#clip812)" style="stroke:#e26f46; stroke-linecap:round; stroke-linejoin:round; stroke-width:8; stroke-opacity:1; fill:none" points="309.067,1369.87 805.108,1304.61 1301.15,1250.7 1797.19,1179.95 2293.23,1128.96 "></polyline>
<path clip-path="url(#clip812)" d="M309.067 1385.87 L297.755 1381.18 L293.067 1369.87 L297.755 1358.56 L309.067 1353.87 L320.379 1358.56 L325.067 1369.87 L320.379 1381.18 Z" fill="#e26f46" fill-rule="evenodd" fill-opacity="1" stroke="#000000" stroke-opacity="1" stroke-width="3.2"></path>
<path clip-path="url(#clip812)" d="M805.108 1320.61 L793.796 1315.92 L789.108 1304.61 L793.796 1293.3 L805.108 1288.61 L816.42 1293.3 L821.108 1304.61 L816.42 1315.92 Z" fill="#e26f46" fill-rule="evenodd" fill-opacity="1" stroke="#000000" stroke-opacity="1" stroke-width="3.2"></path>
<path clip-path="url(#clip812)" d="M1301.15 1266.7 L1289.84 1262.02 L1285.15 1250.7 L1289.84 1239.39 L1301.15 1234.7 L1312.46 1239.39 L1317.15 1250.7 L1312.46 1262.02 Z" fill="#e26f46" fill-rule="evenodd" fill-opacity="1" stroke="#000000" stroke-opacity="1" stroke-width="3.2"></path>
<path clip-path="url(#clip812)" d="M1797.19 1195.95 L1785.88 1191.26 L1781.19 1179.95 L1785.88 1168.64 L1797.19 1163.95 L1808.5 1168.64 L1813.19 1179.95 L1808.5 1191.26 Z" fill="#e26f46" fill-rule="evenodd" fill-opacity="1" stroke="#000000" stroke-opacity="1" stroke-width="3.2"></path>
<path clip-path="url(#clip812)" d="M2293.23 1144.96 L2281.92 1140.27 L2277.23 1128.96 L2281.92 1117.65 L2293.23 1112.96 L2304.54 1117.65 L2309.23 1128.96 L2304.54 1140.27 Z" fill="#e26f46" fill-rule="evenodd" fill-opacity="1" stroke="#000000" stroke-opacity="1" stroke-width="3.2"></path>
<path clip-path="url(#clip810)" d="M1696.59 322.316 L2282.65 322.316 L2282.65 166.796 L1696.59 166.796  Z" fill="#ffffff" fill-rule="evenodd" fill-opacity="1"></path>
<polyline clip-path="url(#clip810)" style="stroke:#000000; stroke-linecap:round; stroke-linejoin:round; stroke-width:4; stroke-opacity:1; fill:none" points="1696.59,322.316 2282.65,322.316 2282.65,166.796 1696.59,166.796 1696.59,322.316 "></polyline>
<polyline clip-path="url(#clip810)" style="stroke:#009af9; stroke-linecap:round; stroke-linejoin:round; stroke-width:8; stroke-opacity:1; fill:none" points="1719.96,218.636 1860.17,218.636 "></polyline>
<path clip-path="url(#clip810)" d="M1790.06 240.274 L1774.77 233.934 L1768.43 218.636 L1774.77 203.338 L1790.06 196.998 L1805.36 203.338 L1811.7 218.636 L1805.36 233.934 Z" fill="#009af9" fill-rule="evenodd" fill-opacity="1" stroke="#000000" stroke-opacity="1" stroke-width="4.55111"></path>
<path clip-path="url(#clip810)" d="M1883.54 201.356 L1890.51 201.356 L1899.33 224.874 L1908.19 201.356 L1915.16 201.356 L1915.16 235.916 L1910.6 235.916 L1910.6 205.569 L1901.69 229.272 L1896.99 229.272 L1888.08 205.569 L1888.08 235.916 L1883.54 235.916 L1883.54 201.356 Z" fill="#000000" fill-rule="nonzero" fill-opacity="1"></path><path clip-path="url(#clip810)" d="M1946.43 221.888 L1946.43 223.971 L1926.85 223.971 Q1927.13 228.369 1929.49 230.684 Q1931.87 232.976 1936.11 232.976 Q1938.56 232.976 1940.86 232.374 Q1943.17 231.772 1945.44 230.569 L1945.44 234.596 Q1943.15 235.568 1940.74 236.078 Q1938.33 236.587 1935.86 236.587 Q1929.65 236.587 1926.02 232.976 Q1922.41 229.365 1922.41 223.207 Q1922.41 216.842 1925.83 213.115 Q1929.28 209.365 1935.11 209.365 Q1940.35 209.365 1943.38 212.745 Q1946.43 216.101 1946.43 221.888 M1942.17 220.638 Q1942.13 217.143 1940.21 215.059 Q1938.31 212.976 1935.16 212.976 Q1931.6 212.976 1929.44 214.99 Q1927.31 217.004 1926.99 220.661 L1942.17 220.638 Z" fill="#000000" fill-rule="nonzero" fill-opacity="1"></path><path clip-path="url(#clip810)" d="M1957.64 202.629 L1957.64 209.99 L1966.41 209.99 L1966.41 213.3 L1957.64 213.3 L1957.64 227.374 Q1957.64 230.545 1958.49 231.448 Q1959.37 232.351 1962.04 232.351 L1966.41 232.351 L1966.41 235.916 L1962.04 235.916 Q1957.11 235.916 1955.23 234.087 Q1953.36 232.235 1953.36 227.374 L1953.36 213.3 L1950.23 213.3 L1950.23 209.99 L1953.36 209.99 L1953.36 202.629 L1957.64 202.629 Z" fill="#000000" fill-rule="nonzero" fill-opacity="1"></path><path clip-path="url(#clip810)" d="M1993.56 220.268 L1993.56 235.916 L1989.3 235.916 L1989.3 220.407 Q1989.3 216.726 1987.87 214.897 Q1986.43 213.069 1983.56 213.069 Q1980.11 213.069 1978.12 215.268 Q1976.13 217.467 1976.13 221.263 L1976.13 235.916 L1971.85 235.916 L1971.85 199.897 L1976.13 199.897 L1976.13 214.018 Q1977.66 211.68 1979.72 210.522 Q1981.8 209.365 1984.51 209.365 Q1988.98 209.365 1991.27 212.143 Q1993.56 214.897 1993.56 220.268 Z" fill="#000000" fill-rule="nonzero" fill-opacity="1"></path><path clip-path="url(#clip810)" d="M2012.11 212.976 Q2008.68 212.976 2006.69 215.661 Q2004.7 218.323 2004.7 222.976 Q2004.7 227.629 2006.67 230.314 Q2008.66 232.976 2012.11 232.976 Q2015.51 232.976 2017.5 230.291 Q2019.49 227.606 2019.49 222.976 Q2019.49 218.37 2017.5 215.684 Q2015.51 212.976 2012.11 212.976 M2012.11 209.365 Q2017.66 209.365 2020.83 212.976 Q2024 216.587 2024 222.976 Q2024 229.342 2020.83 232.976 Q2017.66 236.587 2012.11 236.587 Q2006.53 236.587 2003.36 232.976 Q2000.21 229.342 2000.21 222.976 Q2000.21 216.587 2003.36 212.976 Q2006.53 209.365 2012.11 209.365 Z" fill="#000000" fill-rule="nonzero" fill-opacity="1"></path><path clip-path="url(#clip810)" d="M2048.12 213.925 L2048.12 199.897 L2052.38 199.897 L2052.38 235.916 L2048.12 235.916 L2048.12 232.027 Q2046.78 234.342 2044.72 235.476 Q2042.68 236.587 2039.81 236.587 Q2035.11 236.587 2032.15 232.837 Q2029.21 229.087 2029.21 222.976 Q2029.21 216.865 2032.15 213.115 Q2035.11 209.365 2039.81 209.365 Q2042.68 209.365 2044.72 210.499 Q2046.78 211.61 2048.12 213.925 M2033.61 222.976 Q2033.61 227.675 2035.53 230.36 Q2037.48 233.022 2040.85 233.022 Q2044.23 233.022 2046.18 230.36 Q2048.12 227.675 2048.12 222.976 Q2048.12 218.277 2046.18 215.615 Q2044.23 212.93 2040.85 212.93 Q2037.48 212.93 2035.53 215.615 Q2033.61 218.277 2033.61 222.976 Z" fill="#000000" fill-rule="nonzero" fill-opacity="1"></path><path clip-path="url(#clip810)" d="M2080.35 232.027 L2080.35 245.777 L2076.06 245.777 L2076.06 209.99 L2080.35 209.99 L2080.35 213.925 Q2081.69 211.61 2083.73 210.499 Q2085.79 209.365 2088.63 209.365 Q2093.35 209.365 2096.29 213.115 Q2099.26 216.865 2099.26 222.976 Q2099.26 229.087 2096.29 232.837 Q2093.35 236.587 2088.63 236.587 Q2085.79 236.587 2083.73 235.476 Q2081.69 234.342 2080.35 232.027 M2094.84 222.976 Q2094.84 218.277 2092.89 215.615 Q2090.97 212.93 2087.59 212.93 Q2084.21 212.93 2082.27 215.615 Q2080.35 218.277 2080.35 222.976 Q2080.35 227.675 2082.27 230.36 Q2084.21 233.022 2087.59 233.022 Q2090.97 233.022 2092.89 230.36 Q2094.84 227.675 2094.84 222.976 Z" fill="#000000" fill-rule="nonzero" fill-opacity="1"></path><path clip-path="url(#clip810)" d="M2128.49 221.888 L2128.49 223.971 L2108.91 223.971 Q2109.19 228.369 2111.55 230.684 Q2113.93 232.976 2118.17 232.976 Q2120.62 232.976 2122.91 232.374 Q2125.23 231.772 2127.5 230.569 L2127.5 234.596 Q2125.21 235.568 2122.8 236.078 Q2120.39 236.587 2117.91 236.587 Q2111.71 236.587 2108.08 232.976 Q2104.47 229.365 2104.47 223.207 Q2104.47 216.842 2107.89 213.115 Q2111.34 209.365 2117.17 209.365 Q2122.41 209.365 2125.44 212.745 Q2128.49 216.101 2128.49 221.888 M2124.23 220.638 Q2124.19 217.143 2122.27 215.059 Q2120.37 212.976 2117.22 212.976 Q2113.66 212.976 2111.5 214.99 Q2109.37 217.004 2109.05 220.661 L2124.23 220.638 Z" fill="#000000" fill-rule="nonzero" fill-opacity="1"></path><path clip-path="url(#clip810)" d="M2147.27 222.883 Q2142.1 222.883 2140.11 224.064 Q2138.12 225.244 2138.12 228.092 Q2138.12 230.36 2139.6 231.703 Q2141.11 233.022 2143.68 233.022 Q2147.22 233.022 2149.35 230.522 Q2151.5 227.999 2151.5 223.832 L2151.5 222.883 L2147.27 222.883 M2155.76 221.124 L2155.76 235.916 L2151.5 235.916 L2151.5 231.981 Q2150.04 234.342 2147.87 235.476 Q2145.69 236.587 2142.54 236.587 Q2138.56 236.587 2136.2 234.365 Q2133.86 232.119 2133.86 228.369 Q2133.86 223.994 2136.78 221.772 Q2139.72 219.55 2145.53 219.55 L2151.5 219.55 L2151.5 219.133 Q2151.5 216.194 2149.56 214.596 Q2147.64 212.976 2144.14 212.976 Q2141.92 212.976 2139.81 213.508 Q2137.71 214.041 2135.76 215.106 L2135.76 211.17 Q2138.1 210.268 2140.3 209.828 Q2142.5 209.365 2144.58 209.365 Q2150.21 209.365 2152.98 212.282 Q2155.76 215.198 2155.76 221.124 Z" fill="#000000" fill-rule="nonzero" fill-opacity="1"></path><path clip-path="url(#clip810)" d="M2179.56 213.971 Q2178.84 213.555 2177.98 213.37 Q2177.15 213.161 2176.13 213.161 Q2172.52 213.161 2170.58 215.522 Q2168.66 217.86 2168.66 222.258 L2168.66 235.916 L2164.37 235.916 L2164.37 209.99 L2168.66 209.99 L2168.66 214.018 Q2170 211.657 2172.15 210.522 Q2174.3 209.365 2177.38 209.365 Q2177.82 209.365 2178.35 209.434 Q2178.89 209.481 2179.53 209.596 L2179.56 213.971 Z" fill="#000000" fill-rule="nonzero" fill-opacity="1"></path><path clip-path="url(#clip810)" d="M2200.55 210.754 L2200.55 214.782 Q2198.75 213.856 2196.8 213.393 Q2194.86 212.93 2192.78 212.93 Q2189.6 212.93 2188.01 213.902 Q2186.43 214.874 2186.43 216.819 Q2186.43 218.3 2187.57 219.157 Q2188.7 219.99 2192.13 220.754 L2193.59 221.078 Q2198.12 222.05 2200.02 223.832 Q2201.94 225.592 2201.94 228.763 Q2201.94 232.374 2199.07 234.481 Q2196.22 236.587 2191.22 236.587 Q2189.14 236.587 2186.87 236.17 Q2184.63 235.777 2182.13 234.967 L2182.13 230.569 Q2184.49 231.795 2186.78 232.42 Q2189.07 233.022 2191.32 233.022 Q2194.33 233.022 2195.95 232.004 Q2197.57 230.962 2197.57 229.087 Q2197.57 227.351 2196.39 226.425 Q2195.23 225.499 2191.27 224.643 L2189.79 224.295 Q2185.83 223.462 2184.07 221.749 Q2182.31 220.013 2182.31 217.004 Q2182.31 213.346 2184.91 211.356 Q2187.5 209.365 2192.27 209.365 Q2194.63 209.365 2196.71 209.712 Q2198.79 210.059 2200.55 210.754 Z" fill="#000000" fill-rule="nonzero" fill-opacity="1"></path><path clip-path="url(#clip810)" d="M2218.77 212.976 Q2215.34 212.976 2213.35 215.661 Q2211.36 218.323 2211.36 222.976 Q2211.36 227.629 2213.33 230.314 Q2215.32 232.976 2218.77 232.976 Q2222.17 232.976 2224.16 230.291 Q2226.15 227.606 2226.15 222.976 Q2226.15 218.37 2224.16 215.684 Q2222.17 212.976 2218.77 212.976 M2218.77 209.365 Q2224.33 209.365 2227.5 212.976 Q2230.67 216.587 2230.67 222.976 Q2230.67 229.342 2227.5 232.976 Q2224.33 236.587 2218.77 236.587 Q2213.19 236.587 2210.02 232.976 Q2206.87 229.342 2206.87 222.976 Q2206.87 216.587 2210.02 212.976 Q2213.19 209.365 2218.77 209.365 Z" fill="#000000" fill-rule="nonzero" fill-opacity="1"></path><path clip-path="url(#clip810)" d="M2259.28 220.268 L2259.28 235.916 L2255.02 235.916 L2255.02 220.407 Q2255.02 216.726 2253.59 214.897 Q2252.15 213.069 2249.28 213.069 Q2245.83 213.069 2243.84 215.268 Q2241.85 217.467 2241.85 221.263 L2241.85 235.916 L2237.57 235.916 L2237.57 209.99 L2241.85 209.99 L2241.85 214.018 Q2243.38 211.68 2245.44 210.522 Q2247.52 209.365 2250.23 209.365 Q2254.7 209.365 2256.99 212.143 Q2259.28 214.897 2259.28 220.268 Z" fill="#000000" fill-rule="nonzero" fill-opacity="1"></path><polyline clip-path="url(#clip810)" style="stroke:#e26f46; stroke-linecap:round; stroke-linejoin:round; stroke-width:8; stroke-opacity:1; fill:none" points="1719.96,270.476 1860.17,270.476 "></polyline>
<path clip-path="url(#clip810)" d="M1790.06 292.114 L1774.77 285.774 L1768.43 270.476 L1774.77 255.178 L1790.06 248.838 L1805.36 255.178 L1811.7 270.476 L1805.36 285.774 Z" fill="#e26f46" fill-rule="evenodd" fill-opacity="1" stroke="#000000" stroke-opacity="1" stroke-width="4.55111"></path>
<path clip-path="url(#clip810)" d="M1883.54 253.196 L1890.51 253.196 L1899.33 276.714 L1908.19 253.196 L1915.16 253.196 L1915.16 287.756 L1910.6 287.756 L1910.6 257.409 L1901.69 281.112 L1896.99 281.112 L1888.08 257.409 L1888.08 287.756 L1883.54 287.756 L1883.54 253.196 Z" fill="#000000" fill-rule="nonzero" fill-opacity="1"></path><path clip-path="url(#clip810)" d="M1946.43 273.728 L1946.43 275.811 L1926.85 275.811 Q1927.13 280.209 1929.49 282.524 Q1931.87 284.816 1936.11 284.816 Q1938.56 284.816 1940.86 284.214 Q1943.17 283.612 1945.44 282.409 L1945.44 286.436 Q1943.15 287.408 1940.74 287.918 Q1938.33 288.427 1935.86 288.427 Q1929.65 288.427 1926.02 284.816 Q1922.41 281.205 1922.41 275.047 Q1922.41 268.682 1925.83 264.955 Q1929.28 261.205 1935.11 261.205 Q1940.35 261.205 1943.38 264.585 Q1946.43 267.941 1946.43 273.728 M1942.17 272.478 Q1942.13 268.983 1940.21 266.899 Q1938.31 264.816 1935.16 264.816 Q1931.6 264.816 1929.44 266.83 Q1927.31 268.844 1926.99 272.501 L1942.17 272.478 Z" fill="#000000" fill-rule="nonzero" fill-opacity="1"></path><path clip-path="url(#clip810)" d="M1957.64 254.469 L1957.64 261.83 L1966.41 261.83 L1966.41 265.14 L1957.64 265.14 L1957.64 279.214 Q1957.64 282.385 1958.49 283.288 Q1959.37 284.191 1962.04 284.191 L1966.41 284.191 L1966.41 287.756 L1962.04 287.756 Q1957.11 287.756 1955.23 285.927 Q1953.36 284.075 1953.36 279.214 L1953.36 265.14 L1950.23 265.14 L1950.23 261.83 L1953.36 261.83 L1953.36 254.469 L1957.64 254.469 Z" fill="#000000" fill-rule="nonzero" fill-opacity="1"></path><path clip-path="url(#clip810)" d="M1993.56 272.108 L1993.56 287.756 L1989.3 287.756 L1989.3 272.247 Q1989.3 268.566 1987.87 266.737 Q1986.43 264.909 1983.56 264.909 Q1980.11 264.909 1978.12 267.108 Q1976.13 269.307 1976.13 273.103 L1976.13 287.756 L1971.85 287.756 L1971.85 251.737 L1976.13 251.737 L1976.13 265.858 Q1977.66 263.52 1979.72 262.362 Q1981.8 261.205 1984.51 261.205 Q1988.98 261.205 1991.27 263.983 Q1993.56 266.737 1993.56 272.108 Z" fill="#000000" fill-rule="nonzero" fill-opacity="1"></path><path clip-path="url(#clip810)" d="M2012.11 264.816 Q2008.68 264.816 2006.69 267.501 Q2004.7 270.163 2004.7 274.816 Q2004.7 279.469 2006.67 282.154 Q2008.66 284.816 2012.11 284.816 Q2015.51 284.816 2017.5 282.131 Q2019.49 279.446 2019.49 274.816 Q2019.49 270.21 2017.5 267.524 Q2015.51 264.816 2012.11 264.816 M2012.11 261.205 Q2017.66 261.205 2020.83 264.816 Q2024 268.427 2024 274.816 Q2024 281.182 2020.83 284.816 Q2017.66 288.427 2012.11 288.427 Q2006.53 288.427 2003.36 284.816 Q2000.21 281.182 2000.21 274.816 Q2000.21 268.427 2003.36 264.816 Q2006.53 261.205 2012.11 261.205 Z" fill="#000000" fill-rule="nonzero" fill-opacity="1"></path><path clip-path="url(#clip810)" d="M2048.12 265.765 L2048.12 251.737 L2052.38 251.737 L2052.38 287.756 L2048.12 287.756 L2048.12 283.867 Q2046.78 286.182 2044.72 287.316 Q2042.68 288.427 2039.81 288.427 Q2035.11 288.427 2032.15 284.677 Q2029.21 280.927 2029.21 274.816 Q2029.21 268.705 2032.15 264.955 Q2035.11 261.205 2039.81 261.205 Q2042.68 261.205 2044.72 262.339 Q2046.78 263.45 2048.12 265.765 M2033.61 274.816 Q2033.61 279.515 2035.53 282.2 Q2037.48 284.862 2040.85 284.862 Q2044.23 284.862 2046.18 282.2 Q2048.12 279.515 2048.12 274.816 Q2048.12 270.117 2046.18 267.455 Q2044.23 264.77 2040.85 264.77 Q2037.48 264.77 2035.53 267.455 Q2033.61 270.117 2033.61 274.816 Z" fill="#000000" fill-rule="nonzero" fill-opacity="1"></path><path clip-path="url(#clip810)" d="M2093.29 274.492 Q2093.29 269.862 2091.36 267.316 Q2089.47 264.77 2086.02 264.77 Q2082.59 264.77 2080.67 267.316 Q2078.77 269.862 2078.77 274.492 Q2078.77 279.098 2080.67 281.645 Q2082.59 284.191 2086.02 284.191 Q2089.47 284.191 2091.36 281.645 Q2093.29 279.098 2093.29 274.492 M2097.54 284.538 Q2097.54 291.158 2094.6 294.376 Q2091.66 297.617 2085.6 297.617 Q2083.35 297.617 2081.36 297.27 Q2079.37 296.945 2077.5 296.251 L2077.5 292.108 Q2079.37 293.126 2081.2 293.612 Q2083.03 294.098 2084.93 294.098 Q2089.12 294.098 2091.2 291.899 Q2093.29 289.723 2093.29 285.302 L2093.29 283.196 Q2091.97 285.487 2089.91 286.621 Q2087.85 287.756 2084.98 287.756 Q2080.21 287.756 2077.29 284.121 Q2074.37 280.487 2074.37 274.492 Q2074.37 268.473 2077.29 264.839 Q2080.21 261.205 2084.98 261.205 Q2087.85 261.205 2089.91 262.339 Q2091.97 263.473 2093.29 265.765 L2093.29 261.83 L2097.54 261.83 L2097.54 284.538 Z" fill="#000000" fill-rule="nonzero" fill-opacity="1"></path><path clip-path="url(#clip810)" d="M2126.5 266.807 Q2128.1 263.936 2130.32 262.571 Q2132.54 261.205 2135.55 261.205 Q2139.6 261.205 2141.8 264.052 Q2144 266.876 2144 272.108 L2144 287.756 L2139.72 287.756 L2139.72 272.247 Q2139.72 268.52 2138.4 266.714 Q2137.08 264.909 2134.37 264.909 Q2131.06 264.909 2129.14 267.108 Q2127.22 269.307 2127.22 273.103 L2127.22 287.756 L2122.94 287.756 L2122.94 272.247 Q2122.94 268.497 2121.62 266.714 Q2120.3 264.909 2117.54 264.909 Q2114.28 264.909 2112.36 267.131 Q2110.44 269.33 2110.44 273.103 L2110.44 287.756 L2106.16 287.756 L2106.16 261.83 L2110.44 261.83 L2110.44 265.858 Q2111.9 263.473 2113.93 262.339 Q2115.97 261.205 2118.77 261.205 Q2121.6 261.205 2123.56 262.64 Q2125.55 264.075 2126.5 266.807 Z" fill="#000000" fill-rule="nonzero" fill-opacity="1"></path><path clip-path="url(#clip810)" d="M2152.5 251.737 L2156.76 251.737 L2156.76 287.756 L2152.5 287.756 L2152.5 251.737 Z" fill="#000000" fill-rule="nonzero" fill-opacity="1"></path><path clip-path="url(#clip810)" d="M2177.45 274.723 Q2172.29 274.723 2170.3 275.904 Q2168.31 277.084 2168.31 279.932 Q2168.31 282.2 2169.79 283.543 Q2171.29 284.862 2173.86 284.862 Q2177.41 284.862 2179.53 282.362 Q2181.69 279.839 2181.69 275.672 L2181.69 274.723 L2177.45 274.723 M2185.95 272.964 L2185.95 287.756 L2181.69 287.756 L2181.69 283.821 Q2180.23 286.182 2178.05 287.316 Q2175.88 288.427 2172.73 288.427 Q2168.75 288.427 2166.39 286.205 Q2164.05 283.959 2164.05 280.209 Q2164.05 275.834 2166.97 273.612 Q2169.91 271.39 2175.72 271.39 L2181.69 271.39 L2181.69 270.973 Q2181.69 268.034 2179.74 266.436 Q2177.82 264.816 2174.33 264.816 Q2172.1 264.816 2170 265.348 Q2167.89 265.881 2165.95 266.946 L2165.95 263.01 Q2168.28 262.108 2170.48 261.668 Q2172.68 261.205 2174.77 261.205 Q2180.39 261.205 2183.17 264.122 Q2185.95 267.038 2185.95 272.964 Z" fill="#000000" fill-rule="nonzero" fill-opacity="1"></path></svg>